<?xml version="1.0" encoding="UTF-8" standalone="no"?>
<!-- Created with Inkscape (http://www.inkscape.org/) -->

<svg
   xmlns:dc="http://purl.org/dc/elements/1.1/"
   xmlns:cc="http://creativecommons.org/ns#"
   xmlns:rdf="http://www.w3.org/1999/02/22-rdf-syntax-ns#"
   xmlns:svg="http://www.w3.org/2000/svg"
   xmlns="http://www.w3.org/2000/svg"
   xmlns:sodipodi="http://sodipodi.sourceforge.net/DTD/sodipodi-0.dtd"
   xmlns:inkscape="http://www.inkscape.org/namespaces/inkscape"
   version="1.1"
   id="svg2"
   xml:space="preserve"
   width="469.33334"
   height="396"
   viewBox="0 0 469.33334 396"
   sodipodi:docname="kontextdiagramm.svg"
   inkscape:version="0.92.4 5da689c313, 2019-01-14"><metadata
     id="metadata8"><rdf:RDF><cc:Work
         rdf:about=""><dc:format>image/svg+xml</dc:format><dc:type
           rdf:resource="http://purl.org/dc/dcmitype/StillImage" /><dc:title></dc:title></cc:Work></rdf:RDF></metadata><defs
     id="defs6"><clipPath
       clipPathUnits="userSpaceOnUse"
       id="clipPath18"><path
         d="M 0,0 H 352 V 296.6857 H 0 Z"
         id="path16"
         inkscape:connector-curvature="0"
         style="clip-rule:evenodd" /></clipPath><clipPath
       clipPathUnits="userSpaceOnUse"
       id="clipPath30"><path
         d="M 0,0 H 352 V 295.24896 H 0 Z"
         id="path28"
         inkscape:connector-curvature="0"
         style="clip-rule:evenodd" /></clipPath></defs><sodipodi:namedview
     pagecolor="#ffffff"
     bordercolor="#666666"
     borderopacity="1"
     objecttolerance="10"
     gridtolerance="10"
     guidetolerance="10"
     inkscape:pageopacity="0"
     inkscape:pageshadow="2"
     inkscape:window-width="1920"
     inkscape:window-height="1144"
     id="namedview4"
     showgrid="false"
     inkscape:zoom="1.1919192"
     inkscape:cx="281.82119"
     inkscape:cy="261.9466"
     inkscape:window-x="1920"
     inkscape:window-y="28"
     inkscape:window-maximized="1"
     inkscape:current-layer="g10" /><g
     id="g10"
     inkscape:groupmode="layer"
     inkscape:label="kontextdiagramm"
     transform="matrix(1.3333333,0,0,1.3333333,0,9.9e-6)"><g
       id="g12"><g
         id="g14"
         clip-path="url(#clipPath18)"><g
           id="g20"
           transform="scale(0.71836734)"><path
             d="M 0,0 H 490 V 413 H 0 Z"
             style="fill:#ffffff;fill-opacity:1;fill-rule:nonzero;stroke:none"
             id="path22"
             inkscape:connector-curvature="0" /></g></g></g><g
       id="g24"><g
         id="g26"
         clip-path="url(#clipPath30)"><g
           id="g32"
           transform="matrix(0.71836734,0,0,0.71836734,0.35918367,0.35918367)"><path
             d="m 145.5,0.5 h 60 v 15 l -10,15 h -50 z"
             style="fill:#ffffff;fill-opacity:1;fill-rule:nonzero;stroke:none"
             id="path34"
             inkscape:connector-curvature="0" /><path
             d="m 145.5,0.5 h 60 v 15 l -10,15 h -50 z"
             style="fill:none;stroke:#000000;stroke-width:1;stroke-linecap:butt;stroke-linejoin:miter;stroke-miterlimit:10;stroke-dasharray:none;stroke-opacity:1"
             id="path36"
             inkscape:connector-curvature="0" /><path
             d="m 205.5,0.5 h 150 v 410 h -210 v -380"
             style="fill:none;stroke:#000000;stroke-width:1;stroke-linecap:butt;stroke-linejoin:miter;stroke-miterlimit:10;stroke-dasharray:none;stroke-opacity:1"
             id="path38"
             inkscape:connector-curvature="0" /></g><g
           id="g40"
           transform="matrix(0.71836734,0,0,0.71836734,109.19183,7.9020405)"><text
             transform="translate(0.984375,11)"
             style="font-variant:normal;font-weight:normal;font-size:12px;font-family:Helvetica;-inkscape-font-specification:Helvetica;writing-mode:lr-tb;fill:#000000;fill-opacity:1;fill-rule:nonzero;stroke:none"
             id="text44"><tspan
               x="0 8.0039062 14.677734 18.673828 25.347656 28.681641 38.015625 46.681641"
               y="0"
               sodipodi:role="line"
               id="tspan42">Borg GUI</tspan></text>
</g><g
           id="g46"
           transform="matrix(0.71836734,0,0,0.71836734,0.35918367,0.35918367)"><path
             d="m 111,86 h 51 v 15 h 44.63"
             style="fill:none;stroke:#000000;stroke-width:1;stroke-linecap:butt;stroke-linejoin:miter;stroke-miterlimit:10;stroke-dasharray:none;stroke-opacity:1"
             id="path48"
             inkscape:connector-curvature="0" /><path
             d="m 211.88,101 -7,3.5 1.75,-3.5 -1.75,-3.5 z"
             style="fill:#000000;fill-opacity:1;fill-rule:nonzero;stroke:none"
             id="path50"
             inkscape:connector-curvature="0" /><path
             d="m 211.88,101 -7,3.5 1.75,-3.5 -1.75,-3.5 z"
             style="fill:none;stroke:#000000;stroke-width:1;stroke-linecap:butt;stroke-linejoin:miter;stroke-miterlimit:10;stroke-dasharray:none;stroke-opacity:1"
             id="path52"
             inkscape:connector-curvature="0" /><path
             d="m 0.5,60.5 h 110 v 50 H 0.5 Z"
             style="fill:#ffffff;fill-opacity:1;fill-rule:nonzero;stroke:none"
             id="path54"
             inkscape:connector-curvature="0" /><path
             d="m 0.5,60.5 h 110 v 50 H 0.5 Z"
             style="fill:none;stroke:#000000;stroke-width:1;stroke-linecap:butt;stroke-linejoin:miter;stroke-miterlimit:10;stroke-dasharray:none;stroke-opacity:1"
             id="path56"
             inkscape:connector-curvature="0" /></g><g
           id="g58"
           transform="matrix(0.71836734,0,0,0.71836734,30.889795,57.469387)"><text
             transform="translate(0,11)"
             style="font-variant:normal;font-weight:normal;font-size:12px;font-family:Helvetica;-inkscape-font-specification:Helvetica;writing-mode:lr-tb;fill:#000000;fill-opacity:1;fill-rule:nonzero;stroke:none"
             id="text62"><tspan
               x="0 8.6660156 14.666016 21.339844"
               y="0"
               sodipodi:role="line"
               id="tspan60">User</tspan></text>
</g><g
           id="g64"
           transform="matrix(0.71836734,0,0,0.71836734,0.35918367,0.35918367)"><path
             d="m 379,166 h -43 v 40 h -36.63"
             style="fill:none;stroke:#000000;stroke-width:1;stroke-linecap:butt;stroke-linejoin:miter;stroke-miterlimit:10;stroke-dasharray:none;stroke-opacity:1"
             id="path66"
             inkscape:connector-curvature="0" /><path
             d="m 294.12,206 7,-3.5 -1.75,3.5 1.75,3.5 z"
             style="fill:#000000;fill-opacity:1;fill-rule:nonzero;stroke:none"
             id="path68"
             inkscape:connector-curvature="0" /><path
             d="m 294.12,206 7,-3.5 -1.75,3.5 1.75,3.5 z"
             style="fill:none;stroke:#000000;stroke-width:1;stroke-linecap:butt;stroke-linejoin:miter;stroke-miterlimit:10;stroke-dasharray:none;stroke-opacity:1"
             id="path70"
             inkscape:connector-curvature="0" /><path
             d="m 379,140.5 h 110 v 50 H 379 Z"
             style="fill:#ffffff;fill-opacity:1;fill-rule:nonzero;stroke:none"
             id="path72"
             inkscape:connector-curvature="0" /><path
             d="m 379,140.5 h 110 v 50 H 379 Z"
             style="fill:none;stroke:#000000;stroke-width:1;stroke-linecap:butt;stroke-linejoin:miter;stroke-miterlimit:10;stroke-dasharray:none;stroke-opacity:1"
             id="path74"
             inkscape:connector-curvature="0" /></g><g
           id="g76"
           transform="matrix(0.71836734,0,0,0.71836734,289.50204,114.93877)"><text
             transform="translate(0,11)"
             style="font-variant:normal;font-weight:normal;font-size:12px;font-family:Helvetica;-inkscape-font-specification:Helvetica;writing-mode:lr-tb;fill:#000000;fill-opacity:1;fill-rule:nonzero;stroke:none"
             id="text80"><tspan
               x="0 8.0039062 14.677734 18.673828 25.347656 28.681641 36.685547 39.351562 46.025391 52.699219 56.695312"
               y="0"
               sodipodi:role="line"
               id="tspan78">Borg Binary</tspan></text>
</g><g
           id="g82"
           transform="matrix(0.71836734,0,0,0.71836734,0.35918367,0.35918367)"><path
             d="m 253,141 v 18.63"
             style="fill:none;stroke:#000000;stroke-width:1;stroke-linecap:butt;stroke-linejoin:miter;stroke-miterlimit:10;stroke-dasharray:none;stroke-opacity:1"
             id="path84"
             inkscape:connector-curvature="0" /><path
             d="m 253,164.88 -3.5,-7 3.5,1.75 3.5,-1.75 z"
             style="fill:#000000;fill-opacity:1;fill-rule:nonzero;stroke:none"
             id="path86"
             inkscape:connector-curvature="0" /><path
             d="m 253,164.88 -3.5,-7 3.5,1.75 3.5,-1.75 z"
             style="fill:none;stroke:#000000;stroke-width:1;stroke-linecap:butt;stroke-linejoin:miter;stroke-miterlimit:10;stroke-dasharray:none;stroke-opacity:1"
             id="path88"
             inkscape:connector-curvature="0" /><path
             d="m 293,101 c -3e-5,5.30433 -1.01498,10.40677 -3.04486,15.30733 -2.02988,4.90056 -4.92017,9.22621 -8.6709,12.97694 -3.75076,3.75072 -8.07638,6.64101 -12.97693,8.67088 -4.90057,2.0299 -10.00302,3.04483 -15.30731,3.04485 -5.30435,-2e-5 -10.40681,-1.01495 -15.30737,-3.04485 -4.90056,-2.02987 -9.2262,-4.92016 -12.97692,-8.67088 -3.75074,-3.75073 -6.64105,-8.07638 -8.67091,-12.97695 C 214.01491,111.40677 212.99998,106.30433 213,101 c -2e-5,-5.304337 1.01491,-10.406784 3.04478,-15.30735 2.02988,-4.900559 4.92019,-9.226204 8.67093,-12.976929 3.75072,-3.750725 8.07636,-6.641029 12.97692,-8.670906 C 242.59319,62.014938 247.69565,61 253,61 c 5.30429,0 10.40674,1.014938 15.30728,3.044815 4.90054,2.029877 9.2262,4.920181 12.97696,8.670906 3.75073,3.750725 6.64102,8.07637 8.6709,12.976929 C 291.98502,90.593216 292.99997,95.695663 293,101 Z"
             style="fill:#ffffff;fill-opacity:1;fill-rule:nonzero;stroke:none"
             id="path90"
             inkscape:connector-curvature="0" /><path
             d="m 293,101 c -3e-5,5.30433 -1.01498,10.40677 -3.04486,15.30733 -2.02988,4.90056 -4.92017,9.22621 -8.6709,12.97694 -3.75076,3.75072 -8.07638,6.64101 -12.97693,8.67088 -4.90057,2.0299 -10.00302,3.04483 -15.30731,3.04485 -5.30435,-2e-5 -10.40681,-1.01495 -15.30737,-3.04485 -4.90056,-2.02987 -9.2262,-4.92016 -12.97692,-8.67088 -3.75074,-3.75073 -6.64105,-8.07638 -8.67091,-12.97695 C 214.01491,111.40677 212.99998,106.30433 213,101 c -2e-5,-5.304337 1.01491,-10.406784 3.04478,-15.30735 2.02988,-4.900559 4.92019,-9.226204 8.67093,-12.976929 3.75072,-3.750725 8.07636,-6.641029 12.97692,-8.670906 C 242.59319,62.014938 247.69565,61 253,61 c 5.30429,0 10.40674,1.014938 15.30728,3.044815 4.90054,2.029877 9.2262,4.920181 12.97696,8.670906 3.75073,3.750725 6.64102,8.07637 8.6709,12.976929 C 291.98502,90.593216 292.99997,95.695663 293,101 Z"
             style="fill:none;stroke:#000000;stroke-width:1;stroke-linecap:butt;stroke-linejoin:miter;stroke-miterlimit:10;stroke-dasharray:none;stroke-opacity:1"
             id="path92"
             inkscape:connector-curvature="0" /></g><g
           id="g94"
           transform="matrix(0.71836734,0,0,0.71836734,165.94286,63.216324)"><text
             transform="translate(6.3125,11)"
             style="font-variant:normal;font-weight:normal;font-size:12px;font-family:Helvetica;-inkscape-font-specification:Helvetica;writing-mode:lr-tb;fill:#000000;fill-opacity:1;fill-rule:nonzero;stroke:none"
             id="text98"><tspan
               x="0 8.0039062 14.003906 17.337891 20.003906 26.677734"
               y="0"
               sodipodi:role="line"
               id="tspan96">Aktion</tspan></text>
<text
             transform="translate(0.640625,25)"
             style="font-variant:normal;font-weight:normal;font-size:12px;font-family:Helvetica;-inkscape-font-specification:Helvetica;writing-mode:lr-tb;fill:#000000;fill-opacity:1;fill-rule:nonzero;stroke:none"
             id="text102"><tspan
               x="0 2.6660156 9.3398438 12.005859 15.339844 18.005859 20.671875 27.345703 31.341797 38.015625"
               y="0"
               sodipodi:role="line"
               id="tspan100">initiieren</tspan></text>
</g><g
           id="g104"
           transform="matrix(0.71836734,0,0,0.71836734,0.35918367,0.35918367)"><path
             d="m 253,246 v 13.63"
             style="fill:none;stroke:#000000;stroke-width:1;stroke-linecap:butt;stroke-linejoin:miter;stroke-miterlimit:10;stroke-dasharray:none;stroke-opacity:1"
             id="path106"
             inkscape:connector-curvature="0" /><path
             d="m 253,264.88 -3.5,-7 3.5,1.75 3.5,-1.75 z"
             style="fill:#000000;fill-opacity:1;fill-rule:nonzero;stroke:none"
             id="path108"
             inkscape:connector-curvature="0" /><path
             d="m 253,264.88 -3.5,-7 3.5,1.75 3.5,-1.75 z"
             style="fill:none;stroke:#000000;stroke-width:1;stroke-linecap:butt;stroke-linejoin:miter;stroke-miterlimit:10;stroke-dasharray:none;stroke-opacity:1"
             id="path110"
             inkscape:connector-curvature="0" /><path
             d="m 293,206 c -3e-5,5.30432 -1.01498,10.40675 -3.04486,15.30731 -2.02988,4.90056 -4.92017,9.2262 -8.6709,12.97695 -3.75076,3.75071 -8.07638,6.641 -12.97693,8.67088 C 263.40674,244.98503 258.30429,245.99998 253,246 c -5.30435,-2e-5 -10.40681,-1.01497 -15.30737,-3.04486 -4.90056,-2.02988 -9.2262,-4.92017 -12.97692,-8.67088 -3.75074,-3.75075 -6.64105,-8.07639 -8.67091,-12.97695 C 214.01491,216.40675 212.99998,211.30432 213,206 c -2e-5,-5.30434 1.01491,-10.4068 3.04478,-15.30736 2.02988,-4.90057 4.92019,-9.22621 8.67093,-12.97693 3.75072,-3.75073 8.07636,-6.64103 12.97692,-8.67091 C 242.59319,167.01494 247.69565,166 253,166 c 5.30429,0 10.40674,1.01494 15.30728,3.0448 4.90054,2.02988 9.2262,4.92018 12.97696,8.67091 3.75073,3.75072 6.64102,8.07636 8.6709,12.97693 C 291.98502,195.5932 292.99997,200.69566 293,206 Z"
             style="fill:#ffffff;fill-opacity:1;fill-rule:nonzero;stroke:none"
             id="path112"
             inkscape:connector-curvature="0" /><path
             d="m 293,206 c -3e-5,5.30432 -1.01498,10.40675 -3.04486,15.30731 -2.02988,4.90056 -4.92017,9.2262 -8.6709,12.97695 -3.75076,3.75071 -8.07638,6.641 -12.97693,8.67088 C 263.40674,244.98503 258.30429,245.99998 253,246 c -5.30435,-2e-5 -10.40681,-1.01497 -15.30737,-3.04486 -4.90056,-2.02988 -9.2262,-4.92017 -12.97692,-8.67088 -3.75074,-3.75075 -6.64105,-8.07639 -8.67091,-12.97695 C 214.01491,216.40675 212.99998,211.30432 213,206 c -2e-5,-5.30434 1.01491,-10.4068 3.04478,-15.30736 2.02988,-4.90057 4.92019,-9.22621 8.67093,-12.97693 3.75072,-3.75073 8.07636,-6.64103 12.97692,-8.67091 C 242.59319,167.01494 247.69565,166 253,166 c 5.30429,0 10.40674,1.01494 15.30728,3.0448 4.90054,2.02988 9.2262,4.92018 12.97696,8.67091 3.75073,3.75072 6.64102,8.07636 8.6709,12.97693 C 291.98502,195.5932 292.99997,200.69566 293,206 Z"
             style="fill:none;stroke:#000000;stroke-width:1;stroke-linecap:butt;stroke-linejoin:miter;stroke-miterlimit:10;stroke-dasharray:none;stroke-opacity:1"
             id="path114"
             inkscape:connector-curvature="0" /></g><g
           id="g116"
           transform="matrix(0.71836734,0,0,0.71836734,162.35101,138.6449)"><text
             transform="translate(10.328125,11)"
             style="font-variant:normal;font-weight:normal;font-size:12px;font-family:Helvetica;-inkscape-font-specification:Helvetica;writing-mode:lr-tb;fill:#000000;fill-opacity:1;fill-rule:nonzero;stroke:none"
             id="text120"><tspan
               x="0 8.0039062 14.003906 17.337891 20.003906 26.677734"
               y="0"
               sodipodi:role="line"
               id="tspan118">Aktion</tspan></text>
<text
             transform="translate(0.3125,25)"
             style="font-variant:normal;font-weight:normal;font-size:12px;font-family:Helvetica;-inkscape-font-specification:Helvetica;writing-mode:lr-tb;fill:#000000;fill-opacity:1;fill-rule:nonzero;stroke:none"
             id="text124"><tspan
               x="0 6.6738281 13.347656 19.347656 22.681641 29.355469 36.029297 40.025391 46.699219"
               y="0"
               sodipodi:role="line"
               id="tspan122">ausführen</tspan></text>
</g><g
           id="g126"
           transform="matrix(0.71836734,0,0,0.71836734,0.35918367,0.35918367)"><path
             d="m 293,306 c -3e-5,5.30429 -1.01498,10.40674 -3.04486,15.30731 -2.02988,4.90055 -4.92017,9.2262 -8.6709,12.97693 -3.75076,3.7507 -8.07638,6.64102 -12.97693,8.6709 C 263.40674,344.98502 258.30429,345.99997 253,346 c -5.30435,-3e-5 -10.40681,-1.01498 -15.30737,-3.04486 -4.90056,-2.02988 -9.2262,-4.9202 -12.97692,-8.6709 -3.75074,-3.75073 -6.64105,-8.07638 -8.67091,-12.97693 C 214.01491,316.40674 212.99998,311.30429 213,306 c -2e-5,-5.30435 1.01491,-10.40683 3.04478,-15.30737 2.02988,-4.90058 4.92019,-9.22623 8.67093,-12.97693 3.75072,-3.75073 8.07636,-6.64102 12.97692,-8.6709 C 242.59319,267.01492 247.69565,266 253,266 c 5.30429,0 10.40674,1.01492 15.30728,3.0448 4.90054,2.02988 9.2262,4.92017 12.97696,8.6709 3.75073,3.7507 6.64102,8.07635 8.6709,12.97693 2.02988,4.90054 3.04483,10.00302 3.04486,15.30737 z"
             style="fill:#ffffff;fill-opacity:1;fill-rule:nonzero;stroke:none"
             id="path128"
             inkscape:connector-curvature="0" /><path
             d="m 293,306 c -3e-5,5.30429 -1.01498,10.40674 -3.04486,15.30731 -2.02988,4.90055 -4.92017,9.2262 -8.6709,12.97693 -3.75076,3.7507 -8.07638,6.64102 -12.97693,8.6709 C 263.40674,344.98502 258.30429,345.99997 253,346 c -5.30435,-3e-5 -10.40681,-1.01498 -15.30737,-3.04486 -4.90056,-2.02988 -9.2262,-4.9202 -12.97692,-8.6709 -3.75074,-3.75073 -6.64105,-8.07638 -8.67091,-12.97693 C 214.01491,316.40674 212.99998,311.30429 213,306 c -2e-5,-5.30435 1.01491,-10.40683 3.04478,-15.30737 2.02988,-4.90058 4.92019,-9.22623 8.67093,-12.97693 3.75072,-3.75073 8.07636,-6.64102 12.97692,-8.6709 C 242.59319,267.01492 247.69565,266 253,266 c 5.30429,0 10.40674,1.01492 15.30728,3.0448 4.90054,2.02988 9.2262,4.92017 12.97696,8.6709 3.75073,3.7507 6.64102,8.07635 8.6709,12.97693 2.02988,4.90054 3.04483,10.00302 3.04486,15.30737 z"
             style="fill:none;stroke:#000000;stroke-width:1;stroke-linecap:butt;stroke-linejoin:miter;stroke-miterlimit:10;stroke-dasharray:none;stroke-opacity:1"
             id="path130"
             inkscape:connector-curvature="0" /></g><g
           id="g132"
           transform="matrix(0.71836734,0,0,0.71836734,164.50612,210.48163)"><text
             transform="translate(2.984375,11)"
             style="font-variant:normal;font-weight:normal;font-size:12px;font-family:Helvetica;-inkscape-font-specification:Helvetica;writing-mode:lr-tb;fill:#000000;fill-opacity:1;fill-rule:nonzero;stroke:none"
             id="text136"><tspan
               x="0 8.6660156 15.339844 21.339844 28.013672 30.679688 34.013672 40.6875"
               y="0"
               sodipodi:role="line"
               id="tspan134">Resultat</tspan></text>
<text
             transform="translate(0.640625,25)"
             style="font-variant:normal;font-weight:normal;font-size:12px;font-family:Helvetica;-inkscape-font-specification:Helvetica;writing-mode:lr-tb;fill:#000000;fill-opacity:1;fill-rule:nonzero;stroke:none"
             id="text140"><tspan
               x="0 6.6738281 13.347656 19.347656 26.021484 28.6875 35.361328 42.035156"
               y="0"
               sodipodi:role="line"
               id="tspan138">anzeigen</tspan></text>
</g></g></g></g></svg>