<?xml version="1.0" encoding="UTF-8" standalone="no"?>
<!-- Created with Inkscape (http://www.inkscape.org/) -->

<svg
   xmlns:dc="http://purl.org/dc/elements/1.1/"
   xmlns:cc="http://creativecommons.org/ns#"
   xmlns:rdf="http://www.w3.org/1999/02/22-rdf-syntax-ns#"
   xmlns:svg="http://www.w3.org/2000/svg"
   xmlns="http://www.w3.org/2000/svg"
   xmlns:sodipodi="http://sodipodi.sourceforge.net/DTD/sodipodi-0.dtd"
   xmlns:inkscape="http://www.inkscape.org/namespaces/inkscape"
   version="1.1"
   id="svg2"
   xml:space="preserve"
   width="708"
   height="548"
   viewBox="0 0 708 548"
   sodipodi:docname="use_case.svg"
   inkscape:version="0.92.4 5da689c313, 2019-01-14"><metadata
     id="metadata8"><rdf:RDF><cc:Work
         rdf:about=""><dc:format>image/svg+xml</dc:format><dc:type
           rdf:resource="http://purl.org/dc/dcmitype/StillImage" /><dc:title></dc:title></cc:Work></rdf:RDF></metadata><defs
     id="defs6"><clipPath
       clipPathUnits="userSpaceOnUse"
       id="clipPath18"><path
         d="M 0,0 H 531 V 410.84149 H 0 Z"
         id="path16"
         inkscape:connector-curvature="0"
         style="clip-rule:evenodd" /></clipPath><clipPath
       clipPathUnits="userSpaceOnUse"
       id="clipPath30"><path
         d="M 0,0 H 531 V 410.84149 H 0 Z"
         id="path28"
         inkscape:connector-curvature="0"
         style="clip-rule:evenodd" /></clipPath></defs><sodipodi:namedview
     pagecolor="#ffffff"
     bordercolor="#666666"
     borderopacity="1"
     objecttolerance="10"
     gridtolerance="10"
     guidetolerance="10"
     inkscape:pageopacity="0"
     inkscape:pageshadow="2"
     inkscape:window-width="640"
     inkscape:window-height="480"
     id="namedview4"
     showgrid="false"
     inkscape:zoom="0.42090395"
     inkscape:cx="354"
     inkscape:cy="274"
     inkscape:window-x="2294"
     inkscape:window-y="116"
     inkscape:window-maximized="0"
     inkscape:current-layer="g10" /><g
     id="g10"
     inkscape:groupmode="layer"
     inkscape:label="use_case"
     transform="matrix(1.3333333,0,0,1.3333333,0,1.37e-5)"><g
       id="g12"><g
         id="g14"
         clip-path="url(#clipPath18)"><g
           id="g20"
           transform="scale(0.71951222)"><path
             d="M 0,0 H 738 V 571 H 0 Z"
             style="fill:#ffffff;fill-opacity:1;fill-rule:nonzero;stroke:none"
             id="path22"
             inkscape:connector-curvature="0" /></g></g></g><g
       id="g24"><g
         id="g26"
         clip-path="url(#clipPath30)"><g
           id="g32"
           transform="matrix(0.71951222,0,0,0.71951222,0.35975611,0.35975611)"><path
             d="m 170,0.5 h 60 v 15 l -10,15 h -50 z"
             style="fill:#ffffff;fill-opacity:1;fill-rule:nonzero;stroke:none"
             id="path34"
             inkscape:connector-curvature="0" /><path
             d="m 170,0.5 h 60 v 15 l -10,15 h -50 z"
             style="fill:none;stroke:#000000;stroke-width:1;stroke-linecap:butt;stroke-linejoin:miter;stroke-miterlimit:10;stroke-dasharray:none;stroke-opacity:1"
             id="path36"
             inkscape:connector-curvature="0" /><path
             d="m 230,0.5 h 380 v 570 H 170 v -540"
             style="fill:none;stroke:#000000;stroke-width:1;stroke-linecap:butt;stroke-linejoin:miter;stroke-miterlimit:10;stroke-dasharray:none;stroke-opacity:1"
             id="path38"
             inkscape:connector-curvature="0" /></g><g
           id="g40"
           transform="matrix(0.71951222,0,0,0.71951222,126.63416,7.9146347)"><text
             transform="translate(0.984375,11)"
             style="font-variant:normal;font-weight:normal;font-size:12px;font-family:Helvetica;-inkscape-font-specification:Helvetica;writing-mode:lr-tb;fill:#000000;fill-opacity:1;fill-rule:nonzero;stroke:none"
             id="text44"><tspan
               x="0 8.0039062 14.677734 18.673828 25.347656 28.681641 38.015625 46.681641"
               y="0"
               sodipodi:role="line"
               id="tspan42">Borg GUI</tspan></text>
</g><g
           id="g46"
           transform="matrix(0.71951222,0,0,0.71951222,0.35975611,0.35975611)"><path
             d="m 22.5,263 c 0,2.07108 -0.732233,3.83884 -2.196699,5.30328 C 18.838833,269.76776 17.071066,270.5 15,270.5 c -2.071069,0 -3.838836,-0.73224 -5.3033018,-2.19672 C 8.2322321,266.83884 7.4999995,265.07108 7.5,263 c -5e-7,-2.07108 0.7322321,-3.83887 2.1966982,-5.30331 C 11.161164,256.23224 12.928931,255.5 15,255.5 c 2.071066,0 3.838833,0.73224 5.303301,2.19669 C 21.767767,259.16113 22.5,260.92892 22.5,263 Z"
             style="fill:#ffffff;fill-opacity:1;fill-rule:nonzero;stroke:none"
             id="path48"
             inkscape:connector-curvature="0" /><path
             d="m 22.5,263 c 0,2.07108 -0.732233,3.83884 -2.196699,5.30328 C 18.838833,269.76776 17.071066,270.5 15,270.5 c -2.071069,0 -3.838836,-0.73224 -5.3033018,-2.19672 C 8.2322321,266.83884 7.4999995,265.07108 7.5,263 c -5e-7,-2.07108 0.7322321,-3.83887 2.1966982,-5.30331 C 11.161164,256.23224 12.928931,255.5 15,255.5 c 2.071066,0 3.838833,0.73224 5.303301,2.19669 C 21.767767,259.16113 22.5,260.92892 22.5,263 Z"
             style="fill:none;stroke:#000000;stroke-width:1;stroke-linecap:butt;stroke-linejoin:miter;stroke-miterlimit:10;stroke-dasharray:none;stroke-opacity:1"
             id="path50"
             inkscape:connector-curvature="0" /><path
             d="m 15,270.5 v 25 m 0,-20 H 0 m 15,0 h 15 m -15,20 -15,20 m 15,-20 15,20"
             style="fill:none;stroke:#000000;stroke-width:1;stroke-linecap:butt;stroke-linejoin:miter;stroke-miterlimit:10;stroke-dasharray:none;stroke-opacity:1"
             id="path52"
             inkscape:connector-curvature="0" /></g><g
           id="g54"
           transform="matrix(0.71951222,0,0,0.71951222,2.1585367,233.12196)"><path
             d="M 0,0 H 25 V 14 H 0 Z"
             style="fill:#ffffff;fill-opacity:1;fill-rule:nonzero;stroke:none"
             id="path56"
             inkscape:connector-curvature="0" /><text
             transform="translate(0,11)"
             style="font-variant:normal;font-weight:normal;font-size:12px;font-family:Helvetica;-inkscape-font-specification:Helvetica;writing-mode:lr-tb;fill:#000000;fill-opacity:1;fill-rule:nonzero;stroke:none"
             id="text60"><tspan
               x="0 8.6660156 14.666016 21.339844"
               y="0"
               sodipodi:role="line"
               id="tspan58">User</tspan></text>
</g><g
           id="g62"
           transform="matrix(0.71951222,0,0,0.71951222,0.35975611,0.35975611)"><path
             d="m 380,56 c -3e-5,4.641285 -1.77618,9.105927 -5.32849,13.393913 -3.55228,4.287995 -8.61032,8.07293 -15.17407,11.354813 -6.56379,3.281883 -14.13367,5.810905 -22.70963,7.587051 C 328.21182,90.111916 319.28256,90.999992 310,91 c -9.28259,-8e-6 -18.21188,-0.888084 -26.78787,-2.66423 C 274.63614,86.559624 267.06625,84.030609 260.5025,80.748726 253.93872,77.466843 248.88069,73.681908 245.3284,69.393913 241.77611,65.105927 239.99998,60.641285 240,56 c -2e-5,-4.641293 1.77611,-9.105934 5.3284,-13.393925 3.55229,-4.28799 8.61032,-8.072929 15.1741,-11.354814 6.56375,-3.281887 14.13364,-5.810904 22.70963,-7.587048 C 291.78812,21.888071 300.71741,21 310,21 c 9.28256,0 18.21182,0.888071 26.78781,2.664213 8.57596,1.776144 16.14584,4.305161 22.70963,7.587048 6.56375,3.281885 11.62179,7.066824 15.17407,11.354814 C 378.22382,46.894066 379.99997,51.358707 380,56 Z"
             style="fill:#ffffff;fill-opacity:1;fill-rule:nonzero;stroke:none"
             id="path64"
             inkscape:connector-curvature="0" /><path
             d="m 380,56 c -3e-5,4.641285 -1.77618,9.105927 -5.32849,13.393913 -3.55228,4.287995 -8.61032,8.07293 -15.17407,11.354813 -6.56379,3.281883 -14.13367,5.810905 -22.70963,7.587051 C 328.21182,90.111916 319.28256,90.999992 310,91 c -9.28259,-8e-6 -18.21188,-0.888084 -26.78787,-2.66423 C 274.63614,86.559624 267.06625,84.030609 260.5025,80.748726 253.93872,77.466843 248.88069,73.681908 245.3284,69.393913 241.77611,65.105927 239.99998,60.641285 240,56 c -2e-5,-4.641293 1.77611,-9.105934 5.3284,-13.393925 3.55229,-4.28799 8.61032,-8.072929 15.1741,-11.354814 6.56375,-3.281887 14.13364,-5.810904 22.70963,-7.587048 C 291.78812,21.888071 300.71741,21 310,21 c 9.28256,0 18.21182,0.888071 26.78781,2.664213 8.57596,1.776144 16.14584,4.305161 22.70963,7.587048 6.56375,3.281885 11.62179,7.066824 15.17407,11.354814 C 378.22382,46.894066 379.99997,51.358707 380,56 Z"
             style="fill:none;stroke:#000000;stroke-width:1;stroke-linecap:butt;stroke-linejoin:miter;stroke-miterlimit:10;stroke-dasharray:none;stroke-opacity:1"
             id="path66"
             inkscape:connector-curvature="0" /></g><g
           id="g68"
           transform="matrix(0.71951222,0,0,0.71951222,191.39026,35.975613)"><text
             transform="translate(0.640625,11)"
             style="font-variant:normal;font-weight:normal;font-size:12px;font-family:Helvetica;-inkscape-font-specification:Helvetica;writing-mode:lr-tb;fill:#000000;fill-opacity:1;fill-rule:nonzero;stroke:none"
             id="text72"><tspan
               x="0 8.0039062 14.677734 20.677734 26.677734 33.351562 40.025391 43.359375 50.033203 54.029297 60.029297 63.363281 70.037109 72.703125 75.369141 82.042969"
               y="0"
               sodipodi:role="line"
               id="tspan70">Backup erstellen</tspan></text>
</g><g
           id="g74"
           transform="matrix(0.71951222,0,0,0.71951222,0.35975611,0.35975611)"><path
             d="m 380,237 c -3e-5,4.64128 -1.77618,9.10591 -5.32849,13.39389 -3.55228,4.28798 -8.61032,8.07294 -15.17407,11.35483 -6.56379,3.28189 -14.13367,5.81088 -22.70963,7.587 C 328.21182,271.11188 319.28256,271.99997 310,272 c -9.28259,-3e-5 -18.21188,-0.88812 -26.78787,-2.66428 -8.57599,-1.77612 -16.14588,-4.30511 -22.70963,-7.587 -6.56378,-3.28189 -11.62181,-7.06685 -15.1741,-11.35483 C 241.77611,246.10591 239.99998,241.64128 240,237 c -2e-5,-4.6413 1.77611,-9.10594 5.3284,-13.39394 3.55229,-4.28801 8.61032,-8.07293 15.1741,-11.35481 6.56375,-3.28189 14.13364,-5.81091 22.70963,-7.58705 C 291.78812,202.88806 300.71741,202 310,202 c 9.28256,0 18.21182,0.88806 26.78781,2.66418 8.57596,1.77616 16.14584,4.30518 22.70963,7.58707 6.56375,3.28188 11.62179,7.0668 15.17407,11.35481 3.55231,4.288 5.32846,8.75264 5.32849,13.39394 z"
             style="fill:#ffffff;fill-opacity:1;fill-rule:nonzero;stroke:none"
             id="path76"
             inkscape:connector-curvature="0" /><path
             d="m 380,237 c -3e-5,4.64128 -1.77618,9.10591 -5.32849,13.39389 -3.55228,4.28798 -8.61032,8.07294 -15.17407,11.35483 -6.56379,3.28189 -14.13367,5.81088 -22.70963,7.587 C 328.21182,271.11188 319.28256,271.99997 310,272 c -9.28259,-3e-5 -18.21188,-0.88812 -26.78787,-2.66428 -8.57599,-1.77612 -16.14588,-4.30511 -22.70963,-7.587 -6.56378,-3.28189 -11.62181,-7.06685 -15.1741,-11.35483 C 241.77611,246.10591 239.99998,241.64128 240,237 c -2e-5,-4.6413 1.77611,-9.10594 5.3284,-13.39394 3.55229,-4.28801 8.61032,-8.07293 15.1741,-11.35481 6.56375,-3.28189 14.13364,-5.81091 22.70963,-7.58705 C 291.78812,202.88806 300.71741,202 310,202 c 9.28256,0 18.21182,0.88806 26.78781,2.66418 8.57596,1.77616 16.14584,4.30518 22.70963,7.58707 6.56375,3.28188 11.62179,7.0668 15.17407,11.35481 3.55231,4.288 5.32846,8.75264 5.32849,13.39394 z"
             style="fill:none;stroke:#000000;stroke-width:1;stroke-linecap:butt;stroke-linejoin:miter;stroke-miterlimit:10;stroke-dasharray:none;stroke-opacity:1"
             id="path78"
             inkscape:connector-curvature="0" /></g><g
           id="g80"
           transform="matrix(0.71951222,0,0,0.71951222,191.39026,161.17075)"><text
             transform="translate(23.984375,11)"
             style="font-variant:normal;font-weight:normal;font-size:12px;font-family:Helvetica;-inkscape-font-specification:Helvetica;writing-mode:lr-tb;fill:#000000;fill-opacity:1;fill-rule:nonzero;stroke:none"
             id="text84"><tspan
               x="0 8.0039062 14.677734 20.677734 26.677734 33.351562"
               y="0"
               sodipodi:role="line"
               id="tspan82">Backup</tspan></text>
<text
             transform="translate(0.296875,25)"
             style="font-variant:normal;font-weight:normal;font-size:12px;font-family:Helvetica;-inkscape-font-specification:Helvetica;writing-mode:lr-tb;fill:#000000;fill-opacity:1;fill-rule:nonzero;stroke:none"
             id="text88"><tspan
               x="0 8.6660156 11.332031 18.005859 24.679688 31.353516 35.349609 42.023438 48.697266 52.693359 58.693359 62.027344 68.701172 71.367188 74.033203 80.707031"
               y="0"
               sodipodi:role="line"
               id="tspan86">wiederherstellen</tspan></text>
</g><g
           id="g90"
           transform="matrix(0.71951222,0,0,0.71951222,0.35975611,0.35975611)"><path
             d="m 380,329 c -3e-5,4.64127 -1.77618,9.10587 -5.32849,13.39386 -3.55228,4.28799 -8.61032,8.07294 -15.17407,11.35483 -6.56379,3.28189 -14.13367,5.81091 -22.70963,7.58706 C 328.21182,363.11188 319.28256,363.99997 310,364 c -9.28259,-3e-5 -18.21188,-0.88812 -26.78787,-2.66428 -8.57599,-1.77615 -16.14588,-4.30514 -22.70963,-7.58703 -6.56378,-3.28189 -11.62181,-7.06684 -15.1741,-11.35483 C 241.77611,338.10587 239.99998,333.64127 240,329 c -2e-5,-4.64133 1.77611,-9.10596 5.3284,-13.39395 3.55229,-4.288 8.61032,-8.07291 15.1741,-11.3548 6.56375,-3.28189 14.13364,-5.81091 22.70963,-7.58707 C 291.78812,294.88806 300.71741,294 310,294 c 9.28256,0 18.21182,0.88806 26.78781,2.66418 8.57596,1.77616 16.14584,4.30518 22.70963,7.58707 6.56375,3.28189 11.62179,7.0668 15.17407,11.3548 3.55231,4.28799 5.32846,8.75262 5.32849,13.39395 z"
             style="fill:#ffffff;fill-opacity:1;fill-rule:nonzero;stroke:none"
             id="path92"
             inkscape:connector-curvature="0" /><path
             d="m 380,329 c -3e-5,4.64127 -1.77618,9.10587 -5.32849,13.39386 -3.55228,4.28799 -8.61032,8.07294 -15.17407,11.35483 -6.56379,3.28189 -14.13367,5.81091 -22.70963,7.58706 C 328.21182,363.11188 319.28256,363.99997 310,364 c -9.28259,-3e-5 -18.21188,-0.88812 -26.78787,-2.66428 -8.57599,-1.77615 -16.14588,-4.30514 -22.70963,-7.58703 -6.56378,-3.28189 -11.62181,-7.06684 -15.1741,-11.35483 C 241.77611,338.10587 239.99998,333.64127 240,329 c -2e-5,-4.64133 1.77611,-9.10596 5.3284,-13.39395 3.55229,-4.288 8.61032,-8.07291 15.1741,-11.3548 6.56375,-3.28189 14.13364,-5.81091 22.70963,-7.58707 C 291.78812,294.88806 300.71741,294 310,294 c 9.28256,0 18.21182,0.88806 26.78781,2.66418 8.57596,1.77616 16.14584,4.30518 22.70963,7.58707 6.56375,3.28189 11.62179,7.0668 15.17407,11.3548 3.55231,4.28799 5.32846,8.75262 5.32849,13.39395 z"
             style="fill:none;stroke:#000000;stroke-width:1;stroke-linecap:butt;stroke-linejoin:miter;stroke-miterlimit:10;stroke-dasharray:none;stroke-opacity:1"
             id="path94"
             inkscape:connector-curvature="0" /></g><g
           id="g96"
           transform="matrix(0.71951222,0,0,0.71951222,191.39026,227.36586)"><text
             transform="translate(5.296875,11)"
             style="font-variant:normal;font-weight:normal;font-size:12px;font-family:Helvetica;-inkscape-font-specification:Helvetica;writing-mode:lr-tb;fill:#000000;fill-opacity:1;fill-rule:nonzero;stroke:none"
             id="text100"><tspan
               x="0 8.0039062 10.669922 17.34375 23.34375 30.017578 32.683594 39.357422 46.03125 49.365234 58.03125 64.705078 68.039062 74.712891"
               y="0"
               sodipodi:role="line"
               id="tspan98">Einzelne Datei</tspan></text>
<text
             transform="translate(0.296875,25)"
             style="font-variant:normal;font-weight:normal;font-size:12px;font-family:Helvetica;-inkscape-font-specification:Helvetica;writing-mode:lr-tb;fill:#000000;fill-opacity:1;fill-rule:nonzero;stroke:none"
             id="text104"><tspan
               x="0 8.6660156 11.332031 18.005859 24.679688 31.353516 35.349609 42.023438 48.697266 52.693359 58.693359 62.027344 68.701172 71.367188 74.033203 80.707031"
               y="0"
               sodipodi:role="line"
               id="tspan102">wiederherstellen</tspan></text>
</g><g
           id="g106"
           transform="matrix(0.71951222,0,0,0.71951222,0.35975611,0.35975611)"><path
             d="m 380,421 c -3e-5,4.64127 -1.77618,9.10587 -5.32849,13.39383 -3.55228,4.28799 -8.61032,8.07294 -15.17407,11.35486 -6.56379,3.28186 -14.13367,5.81088 -22.70963,7.58703 C 328.21182,455.11188 319.28256,455.99997 310,456 c -9.28259,-3e-5 -18.21188,-0.88812 -26.78787,-2.66428 -8.57599,-1.77615 -16.14588,-4.30517 -22.70963,-7.58703 -6.56378,-3.28192 -11.62181,-7.06687 -15.1741,-11.35486 C 241.77611,430.10587 239.99998,425.64127 240,421 c -2e-5,-4.64133 1.77611,-9.10599 5.3284,-13.39398 3.55229,-4.288 8.61032,-8.07291 15.1741,-11.35477 6.56375,-3.28189 14.13364,-5.81091 22.70963,-7.58703 C 291.78812,386.88806 300.71741,386 310,386 c 9.28256,0 18.21182,0.88806 26.78781,2.66422 8.57596,1.77612 16.14584,4.30514 22.70963,7.58703 6.56375,3.28186 11.62179,7.0668 15.17407,11.3548 3.55231,4.28799 5.32846,8.75262 5.32849,13.39395 z"
             style="fill:#ffffff;fill-opacity:1;fill-rule:nonzero;stroke:none"
             id="path108"
             inkscape:connector-curvature="0" /><path
             d="m 380,421 c -3e-5,4.64127 -1.77618,9.10587 -5.32849,13.39383 -3.55228,4.28799 -8.61032,8.07294 -15.17407,11.35486 -6.56379,3.28186 -14.13367,5.81088 -22.70963,7.58703 C 328.21182,455.11188 319.28256,455.99997 310,456 c -9.28259,-3e-5 -18.21188,-0.88812 -26.78787,-2.66428 -8.57599,-1.77615 -16.14588,-4.30517 -22.70963,-7.58703 -6.56378,-3.28192 -11.62181,-7.06687 -15.1741,-11.35486 C 241.77611,430.10587 239.99998,425.64127 240,421 c -2e-5,-4.64133 1.77611,-9.10599 5.3284,-13.39398 3.55229,-4.288 8.61032,-8.07291 15.1741,-11.35477 6.56375,-3.28189 14.13364,-5.81091 22.70963,-7.58703 C 291.78812,386.88806 300.71741,386 310,386 c 9.28256,0 18.21182,0.88806 26.78781,2.66422 8.57596,1.77612 16.14584,4.30514 22.70963,7.58703 6.56375,3.28186 11.62179,7.0668 15.17407,11.3548 3.55231,4.28799 5.32846,8.75262 5.32849,13.39395 z"
             style="fill:none;stroke:#000000;stroke-width:1;stroke-linecap:butt;stroke-linejoin:miter;stroke-miterlimit:10;stroke-dasharray:none;stroke-opacity:1"
             id="path110"
             inkscape:connector-curvature="0" /></g><g
           id="g112"
           transform="matrix(0.71951222,0,0,0.71951222,182.7561,298.59756)"><text
             transform="translate(0.28125,11)"
             style="font-variant:normal;font-weight:normal;font-size:12px;font-family:Helvetica;-inkscape-font-specification:Helvetica;writing-mode:lr-tb;fill:#000000;fill-opacity:1;fill-rule:nonzero;stroke:none"
             id="text116"><tspan
               x="0 8.0039062 14.677734 21.351562 27.351562 34.025391 40.699219 44.695312 51.369141 54.703125 57.369141 64.042969 70.716797 74.050781 80.724609 87.398438 94.072266 100.74609 104.74219"
               y="0"
               sodipodi:role="line"
               id="tspan114">Konﬁguration ändern</tspan></text>
</g><g
           id="g118"
           transform="matrix(0.71951222,0,0,0.71951222,0.35975611,0.35975611)"><path
             d="M 15,286 240,56"
             style="fill:none;stroke:#000000;stroke-width:1;stroke-linecap:butt;stroke-linejoin:miter;stroke-miterlimit:10;stroke-dasharray:none;stroke-opacity:1"
             id="path120"
             inkscape:connector-curvature="0" /><path
             d="M 15,286 240,237"
             style="fill:none;stroke:#000000;stroke-width:1;stroke-linecap:butt;stroke-linejoin:miter;stroke-miterlimit:10;stroke-dasharray:none;stroke-opacity:1"
             id="path122"
             inkscape:connector-curvature="0" /><path
             d="m 15,286 225,43"
             style="fill:none;stroke:#000000;stroke-width:1;stroke-linecap:butt;stroke-linejoin:miter;stroke-miterlimit:10;stroke-dasharray:none;stroke-opacity:1"
             id="path124"
             inkscape:connector-curvature="0" /><path
             d="M 15,286 240,421"
             style="fill:none;stroke:#000000;stroke-width:1;stroke-linecap:butt;stroke-linejoin:miter;stroke-miterlimit:10;stroke-dasharray:none;stroke-opacity:1"
             id="path126"
             inkscape:connector-curvature="0" /><path
             d="m 712.5,263 c -6e-5,2.07108 -0.7323,3.83884 -2.19672,5.30328 C 708.83881,269.76776 707.07104,270.5 705,270.5 c -2.07111,0 -3.83887,-0.73224 -5.30328,-2.19672 C 698.23224,266.83884 697.5,265.07108 697.5,263 c 0,-2.07108 0.73224,-3.83887 2.19672,-5.30331 C 701.16113,256.23224 702.92889,255.5 705,255.5 c 2.07104,0 3.83881,0.73224 5.30328,2.19669 1.46442,1.46444 2.19666,3.23223 2.19672,5.30331 z"
             style="fill:#ffffff;fill-opacity:1;fill-rule:nonzero;stroke:none"
             id="path128"
             inkscape:connector-curvature="0" /><path
             d="m 712.5,263 c -6e-5,2.07108 -0.7323,3.83884 -2.19672,5.30328 C 708.83881,269.76776 707.07104,270.5 705,270.5 c -2.07111,0 -3.83887,-0.73224 -5.30328,-2.19672 C 698.23224,266.83884 697.5,265.07108 697.5,263 c 0,-2.07108 0.73224,-3.83887 2.19672,-5.30331 C 701.16113,256.23224 702.92889,255.5 705,255.5 c 2.07104,0 3.83881,0.73224 5.30328,2.19669 1.46442,1.46444 2.19666,3.23223 2.19672,5.30331 z"
             style="fill:none;stroke:#000000;stroke-width:1;stroke-linecap:butt;stroke-linejoin:miter;stroke-miterlimit:10;stroke-dasharray:none;stroke-opacity:1"
             id="path130"
             inkscape:connector-curvature="0" /><path
             d="m 705,270.5 v 25 m 0,-20 h -15 m 15,0 h 15 m -15,20 -15,20 m 15,-20 15,20"
             style="fill:none;stroke:#000000;stroke-width:1;stroke-linecap:butt;stroke-linejoin:miter;stroke-miterlimit:10;stroke-dasharray:none;stroke-opacity:1"
             id="path132"
             inkscape:connector-curvature="0" /></g><g
           id="g134"
           transform="matrix(0.71951222,0,0,0.71951222,484.23172,233.12196)"><path
             d="M 0,0 H 65 V 14 H 0 Z"
             style="fill:#ffffff;fill-opacity:1;fill-rule:nonzero;stroke:none"
             id="path136"
             inkscape:connector-curvature="0" /><text
             transform="translate(0,11)"
             style="font-variant:normal;font-weight:normal;font-size:12px;font-family:Helvetica;-inkscape-font-specification:Helvetica;writing-mode:lr-tb;fill:#000000;fill-opacity:1;fill-rule:nonzero;stroke:none"
             id="text140"><tspan
               x="0 8.0039062 14.677734 18.673828 25.347656 33.351562 40.025391 46.025391 52.025391 58.699219"
               y="0"
               sodipodi:role="line"
               id="tspan138">BorgBackup</tspan></text>
</g><g
           id="g142"
           transform="matrix(0.71951222,0,0,0.71951222,0.35975611,0.35975611)"><path
             d="M 705,286 380,237"
             style="fill:none;stroke:#000000;stroke-width:1;stroke-linecap:butt;stroke-linejoin:miter;stroke-miterlimit:10;stroke-dasharray:none;stroke-opacity:1"
             id="path144"
             inkscape:connector-curvature="0" /><path
             d="M 705,286 380,56"
             style="fill:none;stroke:#000000;stroke-width:1;stroke-linecap:butt;stroke-linejoin:miter;stroke-miterlimit:10;stroke-dasharray:none;stroke-opacity:1"
             id="path146"
             inkscape:connector-curvature="0" /><path
             d="m 440.0083,328.49994 -2.99957,0.0499 -0.0166,-0.99987 2.99957,-0.0499 m -5.98258,1.09958 -2.99957,0.0499 -0.0166,-0.99988 2.99957,-0.0499 m -5.98257,1.09958 -2.99957,0.0499 -0.0166,-0.99988 2.99958,-0.0499 m -5.98258,1.09961 -2.99957,0.0498 -0.0166,-0.99988 2.99957,-0.0498 m -5.98254,1.09958 -2.99961,0.0499 -0.0166,-0.99988 2.99961,-0.0499 m -5.98258,1.09957 -2.9996,0.0499 -0.0166,-0.99988 2.9996,-0.0499 m -5.98257,1.09958 -2.99961,0.0499 -0.0166,-0.99988 2.9996,-0.0499 m -5.98257,1.09961 -2.99957,0.0498 -0.0166,-0.99988 2.99958,-0.0498 m -5.98258,1.09958 -2.99957,0.0499 -0.0166,-0.99987 2.99957,-0.0499 m -5.98257,1.09958 -2.99958,0.0499 -0.0166,-0.99987 2.99958,-0.0499"
             style="fill:#000000;fill-opacity:1;fill-rule:nonzero;stroke:none"
             id="path148"
             inkscape:connector-curvature="0" /><path
             d="m 390.04001,324.32999 -8.92001,4.65002 9.07,4.34998"
             style="fill:none;stroke:#000000;stroke-width:1;stroke-linecap:butt;stroke-linejoin:miter;stroke-miterlimit:10;stroke-dasharray:none;stroke-opacity:1"
             id="path150"
             inkscape:connector-curvature="0" /></g><g
           id="g152"
           transform="matrix(0.71951222,0,0,0.71951222,282.76831,225.92683)"><path
             d="M 0,0 H 35 V 13 H 0 Z"
             style="fill:#ffffff;fill-opacity:1;fill-rule:nonzero;stroke:none"
             id="path154"
             inkscape:connector-curvature="0" /><text
             transform="translate(0,10)"
             style="font-variant:normal;font-weight:normal;font-size:11px;font-family:Helvetica;-inkscape-font-specification:Helvetica;writing-mode:lr-tb;fill:#000000;fill-opacity:1;fill-rule:nonzero;stroke:none"
             id="text158"><tspan
               x="0 2.4438477 8.5615234 14.061523 16.505371 22.623047 28.740723"
               y="0"
               sodipodi:role="line"
               id="tspan156">include</tspan></text>
</g><g
           id="g160"
           transform="matrix(0.71951222,0,0,0.71951222,0.35975611,0.35975611)"><path
             d="M 580,328 705,286"
             style="fill:none;stroke:#000000;stroke-width:1;stroke-linecap:butt;stroke-linejoin:miter;stroke-miterlimit:10;stroke-dasharray:none;stroke-opacity:1"
             id="path162"
             inkscape:connector-curvature="0" /><path
             d="M 240,513 15,286"
             style="fill:none;stroke:#000000;stroke-width:1;stroke-linecap:butt;stroke-linejoin:miter;stroke-miterlimit:10;stroke-dasharray:none;stroke-opacity:1"
             id="path164"
             inkscape:connector-curvature="0" /><path
             d="M 15,286 240,146"
             style="fill:none;stroke:#000000;stroke-width:1;stroke-linecap:butt;stroke-linejoin:miter;stroke-miterlimit:10;stroke-dasharray:none;stroke-opacity:1"
             id="path166"
             inkscape:connector-curvature="0" /><path
             d="M 705,286 380,146"
             style="fill:none;stroke:#000000;stroke-width:1;stroke-linecap:butt;stroke-linejoin:miter;stroke-miterlimit:10;stroke-dasharray:none;stroke-opacity:1"
             id="path168"
             inkscape:connector-curvature="0" /><path
             d="m 380,146 c -3e-5,4.64128 -1.77618,9.10591 -5.32849,13.39391 -3.55228,4.28797 -8.61032,8.07292 -15.17407,11.35482 -6.56379,3.28188 -14.13367,5.81089 -22.70963,7.58704 C 328.21182,180.11191 319.28256,180.99998 310,181 c -9.28259,-2e-5 -18.21188,-0.88811 -26.78787,-2.66425 -8.57599,-1.77613 -16.14588,-4.30514 -22.70963,-7.58702 -6.56378,-3.2819 -11.62181,-7.06685 -15.1741,-11.35482 -3.55229,-4.288 -5.32842,-8.75263 -5.3284,-13.39391 -2e-5,-4.6413 1.77611,-9.10594 5.3284,-13.39394 3.55229,-4.28799 8.61032,-8.07292 15.1741,-11.3548 6.56375,-3.2819 14.13364,-5.81091 22.70963,-7.58705 C 291.78812,111.88807 300.71741,111 310,111 c 9.28256,0 18.21182,0.88807 26.78781,2.66421 8.57596,1.77614 16.14584,4.30515 22.70963,7.58705 6.56375,3.28188 11.62179,7.06681 15.17407,11.3548 3.55231,4.288 5.32846,8.75264 5.32849,13.39394 z"
             style="fill:#ffffff;fill-opacity:1;fill-rule:nonzero;stroke:none"
             id="path170"
             inkscape:connector-curvature="0" /><path
             d="m 380,146 c -3e-5,4.64128 -1.77618,9.10591 -5.32849,13.39391 -3.55228,4.28797 -8.61032,8.07292 -15.17407,11.35482 -6.56379,3.28188 -14.13367,5.81089 -22.70963,7.58704 C 328.21182,180.11191 319.28256,180.99998 310,181 c -9.28259,-2e-5 -18.21188,-0.88811 -26.78787,-2.66425 -8.57599,-1.77613 -16.14588,-4.30514 -22.70963,-7.58702 -6.56378,-3.2819 -11.62181,-7.06685 -15.1741,-11.35482 -3.55229,-4.288 -5.32842,-8.75263 -5.3284,-13.39391 -2e-5,-4.6413 1.77611,-9.10594 5.3284,-13.39394 3.55229,-4.28799 8.61032,-8.07292 15.1741,-11.3548 6.56375,-3.2819 14.13364,-5.81091 22.70963,-7.58705 C 291.78812,111.88807 300.71741,111 310,111 c 9.28256,0 18.21182,0.88807 26.78781,2.66421 8.57596,1.77614 16.14584,4.30515 22.70963,7.58705 6.56375,3.28188 11.62179,7.06681 15.17407,11.3548 3.55231,4.288 5.32846,8.75264 5.32849,13.39394 z"
             style="fill:none;stroke:#000000;stroke-width:1;stroke-linecap:butt;stroke-linejoin:miter;stroke-miterlimit:10;stroke-dasharray:none;stroke-opacity:1"
             id="path172"
             inkscape:connector-curvature="0" /></g><g
           id="g174"
           transform="matrix(0.71951222,0,0,0.71951222,192.82927,100.73171)"><text
             transform="translate(0.625,11)"
             style="font-variant:normal;font-weight:normal;font-size:12px;font-family:Helvetica;-inkscape-font-specification:Helvetica;writing-mode:lr-tb;fill:#000000;fill-opacity:1;fill-rule:nonzero;stroke:none"
             id="text178"><tspan
               x="0 8.0039062 14.677734 20.677734 26.677734 33.351562 40.025391 43.359375 46.025391 52.699219 58.699219 64.699219 71.373047 78.046875"
               y="0"
               sodipodi:role="line"
               id="tspan176">Backup löschen</tspan></text>
</g><g
           id="g180"
           transform="matrix(0.71951222,0,0,0.71951222,0.35975611,0.35975611)"><path
             d="m 580,328 c -6e-5,4.64127 -1.77618,9.1059 -5.32849,13.39389 -3.55225,4.28799 -8.61029,8.07294 -15.17407,11.35483 -6.56379,3.28186 -14.13367,5.81088 -22.70966,7.58703 C 528.21179,362.11191 519.28253,362.99997 510,363 c -9.28262,-3e-5 -18.21191,-0.88809 -26.78793,-2.66422 -8.57596,-1.77618 -16.14585,-4.3052 -22.7096,-7.58706 -6.56378,-3.28189 -11.62179,-7.06684 -15.17407,-11.35483 C 441.77609,337.1059 439.99997,332.64127 440,328 c -3e-5,-4.64133 1.77606,-9.10599 5.32834,-13.39398 3.55231,-4.288 8.61035,-8.07291 15.17413,-11.3548 6.56375,-3.28189 14.13364,-5.81088 22.7096,-7.58704 C 491.78809,293.88806 500.71738,293 510,293 c 9.28253,0 18.21179,0.88806 26.78778,2.66418 8.57599,1.77616 16.14587,4.30515 22.70966,7.58704 6.56378,3.28189 11.62182,7.0668 15.17407,11.3548 3.55231,4.28799 5.32843,8.75265 5.32849,13.39398 z"
             style="fill:#ffffff;fill-opacity:1;fill-rule:nonzero;stroke:none"
             id="path182"
             inkscape:connector-curvature="0" /><path
             d="m 580,328 c -6e-5,4.64127 -1.77618,9.1059 -5.32849,13.39389 -3.55225,4.28799 -8.61029,8.07294 -15.17407,11.35483 -6.56379,3.28186 -14.13367,5.81088 -22.70966,7.58703 C 528.21179,362.11191 519.28253,362.99997 510,363 c -9.28262,-3e-5 -18.21191,-0.88809 -26.78793,-2.66422 -8.57596,-1.77618 -16.14585,-4.3052 -22.7096,-7.58706 -6.56378,-3.28189 -11.62179,-7.06684 -15.17407,-11.35483 C 441.77609,337.1059 439.99997,332.64127 440,328 c -3e-5,-4.64133 1.77606,-9.10599 5.32834,-13.39398 3.55231,-4.288 8.61035,-8.07291 15.17413,-11.3548 6.56375,-3.28189 14.13364,-5.81088 22.7096,-7.58704 C 491.78809,293.88806 500.71738,293 510,293 c 9.28253,0 18.21179,0.88806 26.78778,2.66418 8.57599,1.77616 16.14587,4.30515 22.70966,7.58704 6.56378,3.28189 11.62182,7.0668 15.17407,11.3548 3.55231,4.28799 5.32843,8.75265 5.32849,13.39398 z"
             style="fill:none;stroke:#000000;stroke-width:1;stroke-linecap:butt;stroke-linejoin:miter;stroke-miterlimit:10;stroke-dasharray:none;stroke-opacity:1"
             id="path184"
             inkscape:connector-curvature="0" /></g><g
           id="g186"
           transform="matrix(0.71951222,0,0,0.71951222,334.57318,231.68294)"><text
             transform="translate(0.96875,11)"
             style="font-variant:normal;font-weight:normal;font-size:12px;font-family:Helvetica;-inkscape-font-specification:Helvetica;writing-mode:lr-tb;fill:#000000;fill-opacity:1;fill-rule:nonzero;stroke:none"
             id="text190"><tspan
               x="0 8.0039062 14.677734 20.677734 26.677734 33.351562 40.025391 43.359375 53.355469 60.029297 66.703125 73.376953 76.710938 83.384766"
               y="0"
               sodipodi:role="line"
               id="tspan188">Backup mounten</tspan></text>
</g><g
           id="g192"
           transform="matrix(0.71951222,0,0,0.71951222,0.35975611,0.35975611)"><path
             d="m 380,513 c -3e-5,4.6413 -1.77618,9.1059 -5.32849,13.39386 -3.55228,4.28796 -8.61032,8.07294 -15.17407,11.35486 -6.56379,3.28186 -14.13367,5.81085 -22.70963,7.58697 C 328.21182,547.11182 319.28256,547.99994 310,548 c -9.28259,-6e-5 -18.21188,-0.88818 -26.78787,-2.66431 -8.57599,-1.77612 -16.14588,-4.30511 -22.70963,-7.58697 -6.56378,-3.28192 -11.62181,-7.0669 -15.1741,-11.35486 C 241.77611,522.1059 239.99998,517.6413 240,513 c -2e-5,-4.64133 1.77611,-9.10599 5.3284,-13.39398 3.55229,-4.288 8.61032,-8.07294 15.1741,-11.35477 6.56375,-3.28189 14.13364,-5.81091 22.70963,-7.58707 C 291.78812,478.88806 300.71741,478 310,478 c 9.28256,0 18.21182,0.88806 26.78781,2.66418 8.57596,1.77616 16.14584,4.30518 22.70963,7.58707 6.56375,3.28183 11.62179,7.06677 15.17407,11.35477 3.55231,4.28799 5.32846,8.75265 5.32849,13.39398 z"
             style="fill:#ffffff;fill-opacity:1;fill-rule:nonzero;stroke:none"
             id="path194"
             inkscape:connector-curvature="0" /><path
             d="m 380,513 c -3e-5,4.6413 -1.77618,9.1059 -5.32849,13.39386 -3.55228,4.28796 -8.61032,8.07294 -15.17407,11.35486 -6.56379,3.28186 -14.13367,5.81085 -22.70963,7.58697 C 328.21182,547.11182 319.28256,547.99994 310,548 c -9.28259,-6e-5 -18.21188,-0.88818 -26.78787,-2.66431 -8.57599,-1.77612 -16.14588,-4.30511 -22.70963,-7.58697 -6.56378,-3.28192 -11.62181,-7.0669 -15.1741,-11.35486 C 241.77611,522.1059 239.99998,517.6413 240,513 c -2e-5,-4.64133 1.77611,-9.10599 5.3284,-13.39398 3.55229,-4.288 8.61032,-8.07294 15.1741,-11.35477 6.56375,-3.28189 14.13364,-5.81091 22.70963,-7.58707 C 291.78812,478.88806 300.71741,478 310,478 c 9.28256,0 18.21182,0.88806 26.78781,2.66418 8.57596,1.77616 16.14584,4.30518 22.70963,7.58707 6.56375,3.28183 11.62179,7.06677 15.17407,11.35477 3.55231,4.28799 5.32846,8.75265 5.32849,13.39398 z"
             style="fill:none;stroke:#000000;stroke-width:1;stroke-linecap:butt;stroke-linejoin:miter;stroke-miterlimit:10;stroke-dasharray:none;stroke-opacity:1"
             id="path196"
             inkscape:connector-curvature="0" /></g><g
           id="g198"
           transform="matrix(0.71951222,0,0,0.71951222,179.87805,359.7561)"><text
             transform="translate(0.625,11)"
             style="font-variant:normal;font-weight:normal;font-size:12px;font-family:Helvetica;-inkscape-font-specification:Helvetica;writing-mode:lr-tb;fill:#000000;fill-opacity:1;fill-rule:nonzero;stroke:none"
             id="text202"><tspan
               x="0 6.6738281 13.347656 16.681641 23.355469 33.351562 40.025391 43.359375 46.025391 52.025391 58.025391 64.699219 71.373047 77.373047 80.707031 88.710938 95.384766 101.38477 107.38477 114.05859"
               y="0"
               sodipodi:role="line"
               id="tspan200">automatisches Backup</tspan></text>
<text
             transform="translate(35.3125,25)"
             style="font-variant:normal;font-weight:normal;font-size:12px;font-family:Helvetica;-inkscape-font-specification:Helvetica;writing-mode:lr-tb;fill:#000000;fill-opacity:1;fill-rule:nonzero;stroke:none"
             id="text206"><tspan
               x="0 6.6738281 12.673828 16.007812 18.673828 24.673828 27.339844 34.013672 38.009766 44.683594"
               y="0"
               sodipodi:role="line"
               id="tspan204">aktivieren</tspan></text>
</g></g></g></g></svg>