<?xml version="1.0" encoding="UTF-8" standalone="no"?>
<!-- Created with Inkscape (http://www.inkscape.org/) -->

<svg
   xmlns:dc="http://purl.org/dc/elements/1.1/"
   xmlns:cc="http://creativecommons.org/ns#"
   xmlns:rdf="http://www.w3.org/1999/02/22-rdf-syntax-ns#"
   xmlns:svg="http://www.w3.org/2000/svg"
   xmlns="http://www.w3.org/2000/svg"
   xmlns:sodipodi="http://sodipodi.sourceforge.net/DTD/sodipodi-0.dtd"
   xmlns:inkscape="http://www.inkscape.org/namespaces/inkscape"
   version="1.1"
   id="svg6973"
   xml:space="preserve"
   width="528"
   height="643.83997"
   viewBox="0 0 528 643.83997"
   sodipodi:docname="activity_settings.svg"
   inkscape:version="0.92.4 5da689c313, 2019-01-14"><metadata
     id="metadata6979"><rdf:RDF><cc:Work
         rdf:about=""><dc:format>image/svg+xml</dc:format><dc:type
           rdf:resource="http://purl.org/dc/dcmitype/StillImage" /><dc:title></dc:title></cc:Work></rdf:RDF></metadata><defs
     id="defs6977"><clipPath
       clipPathUnits="userSpaceOnUse"
       id="clipPath6989"><path
         d="M 0,0 H 1649.9999 V 2011.6847 H 0 Z"
         id="path6987"
         inkscape:connector-curvature="0"
         style="clip-rule:evenodd" /></clipPath><clipPath
       clipPathUnits="userSpaceOnUse"
       id="clipPath7001"><path
         d="M 0,0 H 1649.9999 V 2008.6956 H 0 Z"
         id="path6999"
         inkscape:connector-curvature="0"
         style="clip-rule:evenodd" /></clipPath></defs><sodipodi:namedview
     pagecolor="#ffffff"
     bordercolor="#666666"
     borderopacity="1"
     objecttolerance="10"
     gridtolerance="10"
     guidetolerance="10"
     inkscape:pageopacity="0"
     inkscape:pageshadow="2"
     inkscape:window-width="1920"
     inkscape:window-height="1144"
     id="namedview6975"
     showgrid="false"
     inkscape:zoom="1.467756"
     inkscape:cx="264"
     inkscape:cy="321.91998"
     inkscape:window-x="1920"
     inkscape:window-y="28"
     inkscape:window-maximized="1"
     inkscape:current-layer="g6981" /><g
     id="g6981"
     inkscape:groupmode="layer"
     inkscape:label="activity_settings"
     transform="matrix(0.31999998,0,0,0.31999998,0,1.6095999e-5)"><g
       id="g6983"><g
         id="g6985"
         clip-path="url(#clipPath6989)"><g
           id="g6991"
           transform="scale(2.9891303)"><path
             d="M 0,0 H 552 V 673 H 0 Z"
             style="fill:#ffffff;fill-opacity:1;fill-rule:nonzero;stroke:none"
             id="path6993"
             inkscape:connector-curvature="0" /></g></g></g><g
       id="g6995"><g
         id="g6997"
         clip-path="url(#clipPath7001)"><g
           id="g7003"
           transform="matrix(2.9891303,0,0,2.9891303,1.4945651,1.4945651)"><path
             d="M 1,21 V 1 h 550 v 20"
             style="fill:#ffffff;fill-opacity:1;fill-rule:nonzero;stroke:none"
             id="path7005"
             inkscape:connector-curvature="0" /><path
             d="M 1,21 V 1 h 550 v 20"
             style="fill:none;stroke:#000000;stroke-width:1;stroke-linecap:butt;stroke-linejoin:miter;stroke-miterlimit:10;stroke-dasharray:none;stroke-opacity:1"
             id="path7007"
             inkscape:connector-curvature="0" /><path
             d="M 1,21 V 671 H 551 V 21"
             style="fill:none;stroke:#000000;stroke-width:1;stroke-linecap:butt;stroke-linejoin:miter;stroke-miterlimit:10;stroke-dasharray:none;stroke-opacity:1"
             id="path7009"
             inkscape:connector-curvature="0" /><path
             d="M 1,21 H 551"
             style="fill:none;stroke:#000000;stroke-width:1;stroke-linecap:butt;stroke-linejoin:miter;stroke-miterlimit:10;stroke-dasharray:none;stroke-opacity:1"
             id="path7011"
             inkscape:connector-curvature="0" /></g><g
           id="g7013"
           transform="matrix(2.9891303,0,0,2.9891303,636.68475,17.934782)"><text
             transform="translate(0,11)"
             style="font-variant:normal;font-weight:bold;font-size:12px;font-family:Verdana;-inkscape-font-specification:Verdana-Bold;writing-mode:lr-tb;fill:#000000;fill-opacity:1;fill-rule:nonzero;stroke:none"
             id="text7017"><tspan
               x="0 8.1972656 12.298828 20.847656 27.966797 33.433594 41.402344 45.503906 49.605469 58.154297 66.703125 75.09375 79.195312 87.210938 95.759766 104.15039 112.11914 118.08398"
               y="0"
               sodipodi:role="line"
               id="tspan7015">Einstellung ändern</tspan></text>
</g><g
           id="g7019"
           transform="matrix(2.9891303,0,0,2.9891303,1.4945651,1.4945651)"><path
             d="m 164,136 h 210 v 13.63"
             style="fill:none;stroke:#000000;stroke-width:1;stroke-linecap:butt;stroke-linejoin:miter;stroke-miterlimit:10;stroke-dasharray:none;stroke-opacity:1"
             id="path7021"
             inkscape:connector-curvature="0" /><path
             d="m 374,154.88 -3.5,-7 3.5,1.75 3.5,-1.75 z"
             style="fill:#000000;fill-opacity:1;fill-rule:nonzero;stroke:none"
             id="path7023"
             inkscape:connector-curvature="0" /><path
             d="m 374,154.88 -3.5,-7 3.5,1.75 3.5,-1.75 z"
             style="fill:none;stroke:#000000;stroke-width:1;stroke-linecap:butt;stroke-linejoin:miter;stroke-miterlimit:10;stroke-dasharray:none;stroke-opacity:1"
             id="path7025"
             inkscape:connector-curvature="0" /><path
             d="M 1,41 V 21 h 255 v 20"
             style="fill:#ffffff;fill-opacity:1;fill-rule:nonzero;stroke:none"
             id="path7027"
             inkscape:connector-curvature="0" /><path
             d="M 1,41 V 21 h 255 v 20"
             style="fill:none;stroke:#000000;stroke-width:1;stroke-linecap:butt;stroke-linejoin:miter;stroke-miterlimit:10;stroke-dasharray:none;stroke-opacity:1"
             id="path7029"
             inkscape:connector-curvature="0" /><path
             d="M 1,41 V 671 H 256 V 41"
             style="fill:none;stroke:#000000;stroke-width:1;stroke-linecap:butt;stroke-linejoin:miter;stroke-miterlimit:10;stroke-dasharray:none;stroke-opacity:1"
             id="path7031"
             inkscape:connector-curvature="0" /><path
             d="M 1,41 H 256"
             style="fill:none;stroke:#000000;stroke-width:1;stroke-linecap:butt;stroke-linejoin:miter;stroke-miterlimit:10;stroke-dasharray:none;stroke-opacity:1"
             id="path7033"
             inkscape:connector-curvature="0" /></g><g
           id="g7035"
           transform="matrix(2.9891303,0,0,2.9891303,343.74997,77.717384)"><text
             transform="translate(0,11)"
             style="font-variant:normal;font-weight:bold;font-size:12px;font-family:Helvetica;-inkscape-font-specification:Helvetica-Bold;writing-mode:lr-tb;fill:#000000;fill-opacity:1;fill-rule:nonzero;stroke:none"
             id="text7039"><tspan
               x="0 8.6660156 15.339844 22.013672"
               y="0"
               sodipodi:role="line"
               id="tspan7037">User</tspan></text>
</g><g
           id="g7041"
           transform="matrix(2.9891303,0,0,2.9891303,1.4945651,1.4945651)"><path
             d="m 64,81 h 50 v 33.63"
             style="fill:none;stroke:#000000;stroke-width:1;stroke-linecap:butt;stroke-linejoin:miter;stroke-miterlimit:10;stroke-dasharray:none;stroke-opacity:1"
             id="path7043"
             inkscape:connector-curvature="0" /><path
             d="m 114,119.88 -3.5,-7 3.5,1.75 3.5,-1.75 z"
             style="fill:#000000;fill-opacity:1;fill-rule:nonzero;stroke:none"
             id="path7045"
             inkscape:connector-curvature="0" /><path
             d="m 114,119.88 -3.5,-7 3.5,1.75 3.5,-1.75 z"
             style="fill:none;stroke:#000000;stroke-width:1;stroke-linecap:butt;stroke-linejoin:miter;stroke-miterlimit:10;stroke-dasharray:none;stroke-opacity:1"
             id="path7047"
             inkscape:connector-curvature="0" /><path
             d="m 64,81 c -4e-6,1.313217 -0.1217,2.613815 -0.365086,3.901802 -0.243389,1.287987 -0.60379,2.538605 -1.081211,3.751854 -0.47742,1.213249 -1.062683,2.365829 -1.755787,3.457741 -0.693103,1.091896 -1.480732,2.102142 -2.362888,3.030731 -0.88216,0.928581 -1.841892,1.757668 -2.879196,2.487244 -1.037308,0.729591 -2.132259,1.345657 -3.284851,1.848205 -1.152592,0.502556 -2.340679,0.881933 -3.56427,1.138123 C 47.483128,100.8719 46.247559,101 45,101 c -1.247559,0 -2.483131,-0.1281 -3.706722,-0.3843 -1.223587,-0.25619 -2.411679,-0.635567 -3.56427,-1.138123 C 36.576416,98.975029 35.481464,98.358963 34.44416,97.629372 33.406857,96.899796 32.447124,96.070709 31.564968,95.142128 30.68281,94.213539 29.895176,93.203293 29.20207,92.111397 28.508965,91.019485 27.923702,89.866905 27.446283,88.653656 26.968864,87.440407 26.608461,86.189789 26.365076,84.901802 26.121689,83.613815 25.999998,82.313217 26,81 c -2e-6,-1.313225 0.121689,-2.613831 0.365076,-3.901817 0.243387,-1.287987 0.60379,-2.538605 1.081209,-3.751862 0.477417,-1.213249 1.06268,-2.365829 1.755785,-3.457733 0.693106,-1.091896 1.48074,-2.102142 2.362898,-3.030724 0.882156,-0.928588 1.841889,-1.757675 2.879192,-2.487259 1.037304,-0.729587 2.132256,-1.345653 3.284848,-1.848201 1.152591,-0.502545 2.340683,-0.881913 3.56427,-1.138111 C 42.516869,61.128098 43.752441,61 45,61 c 1.247559,0 2.483131,0.128098 3.706715,0.384296 1.223587,0.256195 2.411674,0.635567 3.564266,1.138112 1.152592,0.502548 2.247543,1.118614 3.284851,1.848197 1.037304,0.729584 1.997036,1.558671 2.879196,2.487259 0.882156,0.928582 1.669788,1.938828 2.362892,3.030724 0.6931,1.091904 1.278363,2.244484 1.755783,3.457733 0.477421,1.213257 0.837822,2.463875 1.081211,3.751862 C 63.8783,78.386169 63.999996,79.686775 64,81 Z"
             style="fill:#000000;fill-opacity:1;fill-rule:nonzero;stroke:none"
             id="path7049"
             inkscape:connector-curvature="0" /><path
             d="m 64,81 c -4e-6,1.313217 -0.1217,2.613815 -0.365086,3.901802 -0.243389,1.287987 -0.60379,2.538605 -1.081211,3.751854 -0.47742,1.213249 -1.062683,2.365829 -1.755787,3.457741 -0.693103,1.091896 -1.480732,2.102142 -2.362888,3.030731 -0.88216,0.928581 -1.841892,1.757668 -2.879196,2.487244 -1.037308,0.729591 -2.132259,1.345657 -3.284851,1.848205 -1.152592,0.502556 -2.340679,0.881933 -3.56427,1.138123 C 47.483128,100.8719 46.247559,101 45,101 c -1.247559,0 -2.483131,-0.1281 -3.706722,-0.3843 -1.223587,-0.25619 -2.411679,-0.635567 -3.56427,-1.138123 C 36.576416,98.975029 35.481464,98.358963 34.44416,97.629372 33.406857,96.899796 32.447124,96.070709 31.564968,95.142128 30.68281,94.213539 29.895176,93.203293 29.20207,92.111397 28.508965,91.019485 27.923702,89.866905 27.446283,88.653656 26.968864,87.440407 26.608461,86.189789 26.365076,84.901802 26.121689,83.613815 25.999998,82.313217 26,81 c -2e-6,-1.313225 0.121689,-2.613831 0.365076,-3.901817 0.243387,-1.287987 0.60379,-2.538605 1.081209,-3.751862 0.477417,-1.213249 1.06268,-2.365829 1.755785,-3.457733 0.693106,-1.091896 1.48074,-2.102142 2.362898,-3.030724 0.882156,-0.928588 1.841889,-1.757675 2.879192,-2.487259 1.037304,-0.729587 2.132256,-1.345653 3.284848,-1.848201 1.152591,-0.502545 2.340683,-0.881913 3.56427,-1.138111 C 42.516869,61.128098 43.752441,61 45,61 c 1.247559,0 2.483131,0.128098 3.706715,0.384296 1.223587,0.256195 2.411674,0.635567 3.564266,1.138112 1.152592,0.502548 2.247543,1.118614 3.284851,1.848197 1.037304,0.729584 1.997036,1.558671 2.879196,2.487259 0.882156,0.928582 1.669788,1.938828 2.362892,3.030724 0.6931,1.091904 1.278363,2.244484 1.755783,3.457733 0.477421,1.213257 0.837822,2.463875 1.081211,3.751862 C 63.8783,78.386169 63.999996,79.686775 64,81 Z"
             style="fill:none;stroke:#000000;stroke-width:1;stroke-linecap:butt;stroke-linejoin:miter;stroke-miterlimit:10;stroke-dasharray:none;stroke-opacity:1"
             id="path7051"
             inkscape:connector-curvature="0" /><path
             d="m 78.5,121 h 70 c 0.98491,0 1.96034,0.0961 2.92633,0.28822 0.96599,0.19215 1.90395,0.47668 2.81389,0.85358 0.90993,0.37691 1.77437,0.83896 2.59331,1.38615 0.81892,0.54719 1.57661,1.169 2.27305,1.86544 0.69643,0.69644 1.31824,1.45412 1.86543,2.27304 0.5472,0.81892 1.00925,1.68336 1.38616,2.5933 0.37691,0.90993 0.66144,1.8479 0.85359,2.81391 0.19215,0.96599 0.28824,1.94145 0.28824,2.92636 0,0.98491 -0.0961,1.96036 -0.28824,2.92635 -0.19215,0.96598 -0.47668,1.90394 -0.85359,2.81388 -0.37691,0.90995 -0.83896,1.77437 -1.38616,2.5933 -0.54719,0.81894 -1.169,1.57663 -1.86543,2.27307 -0.69644,0.69644 -1.45413,1.31825 -2.27305,1.86545 -0.81894,0.54719 -1.68338,1.00923 -2.59331,1.38614 -0.90994,0.3769 -1.8479,0.66143 -2.81389,0.85357 C 150.46034,150.90391 149.48491,151 148.5,151 h -70 c -0.984917,0 -1.960373,-0.0961 -2.926361,-0.28824 -0.965988,-0.19214 -1.903954,-0.47667 -2.813896,-0.85357 -0.909951,-0.37691 -1.774384,-0.83895 -2.593308,-1.38614 -0.818931,-0.5472 -1.576607,-1.16901 -2.273041,-1.86545 -0.696449,-0.69644 -1.318267,-1.45413 -1.865455,-2.27307 -0.547188,-0.81893 -1.009239,-1.68335 -1.386147,-2.5933 -0.376907,-0.90994 -0.661434,-1.8479 -0.85358,-2.81388 C 63.596069,137.96036 63.499996,136.98491 63.5,136 c -4e-6,-0.98491 0.09607,-1.96037 0.288212,-2.92636 0.192146,-0.96601 0.476673,-1.90398 0.85358,-2.81391 0.376908,-0.90994 0.838959,-1.77438 1.386154,-2.5933 0.547188,-0.81892 1.168999,-1.5766 1.865448,-2.27304 0.696434,-0.69644 1.45411,-1.31826 2.273034,-1.86544 0.818931,-0.54719 1.683364,-1.00924 2.593315,-1.38615 0.909942,-0.3769 1.847908,-0.66143 2.813896,-0.85358 C 76.539627,121.09608 77.515083,121 78.5,121 Z"
             style="fill:#ffffff;fill-opacity:1;fill-rule:nonzero;stroke:none"
             id="path7053"
             inkscape:connector-curvature="0" /><path
             d="m 78.5,121 h 70 c 0.98491,0 1.96034,0.0961 2.92633,0.28822 0.96599,0.19215 1.90395,0.47668 2.81389,0.85358 0.90993,0.37691 1.77437,0.83896 2.59331,1.38615 0.81892,0.54719 1.57661,1.169 2.27305,1.86544 0.69643,0.69644 1.31824,1.45412 1.86543,2.27304 0.5472,0.81892 1.00925,1.68336 1.38616,2.5933 0.37691,0.90993 0.66144,1.8479 0.85359,2.81391 0.19215,0.96599 0.28824,1.94145 0.28824,2.92636 0,0.98491 -0.0961,1.96036 -0.28824,2.92635 -0.19215,0.96598 -0.47668,1.90394 -0.85359,2.81388 -0.37691,0.90995 -0.83896,1.77437 -1.38616,2.5933 -0.54719,0.81894 -1.169,1.57663 -1.86543,2.27307 -0.69644,0.69644 -1.45413,1.31825 -2.27305,1.86545 -0.81894,0.54719 -1.68338,1.00923 -2.59331,1.38614 -0.90994,0.3769 -1.8479,0.66143 -2.81389,0.85357 C 150.46034,150.90391 149.48491,151 148.5,151 h -70 c -0.984917,0 -1.960373,-0.0961 -2.926361,-0.28824 -0.965988,-0.19214 -1.903954,-0.47667 -2.813896,-0.85357 -0.909951,-0.37691 -1.774384,-0.83895 -2.593308,-1.38614 -0.818931,-0.5472 -1.576607,-1.16901 -2.273041,-1.86545 -0.696449,-0.69644 -1.318267,-1.45413 -1.865455,-2.27307 -0.547188,-0.81893 -1.009239,-1.68335 -1.386147,-2.5933 -0.376907,-0.90994 -0.661434,-1.8479 -0.85358,-2.81388 C 63.596069,137.96036 63.499996,136.98491 63.5,136 c -4e-6,-0.98491 0.09607,-1.96037 0.288212,-2.92636 0.192146,-0.96601 0.476673,-1.90398 0.85358,-2.81391 0.376908,-0.90994 0.838959,-1.77438 1.386154,-2.5933 0.547188,-0.81892 1.168999,-1.5766 1.865448,-2.27304 0.696434,-0.69644 1.45411,-1.31826 2.273034,-1.86544 0.818931,-0.54719 1.683364,-1.00924 2.593315,-1.38615 0.909942,-0.3769 1.847908,-0.66143 2.813896,-0.85358 C 76.539627,121.09608 77.515083,121 78.5,121 Z"
             style="fill:none;stroke:#000000;stroke-width:1;stroke-linecap:butt;stroke-linejoin:miter;stroke-miterlimit:10;stroke-dasharray:none;stroke-opacity:1"
             id="path7055"
             inkscape:connector-curvature="0" /></g><g
           id="g7057"
           transform="matrix(2.9891303,0,0,2.9891303,197.28259,367.66302)"><text
             transform="translate(17.78125,11)"
             style="font-variant:normal;font-weight:normal;font-size:12px;font-family:Verdana;-inkscape-font-specification:Verdana;writing-mode:lr-tb;fill:#000000;fill-opacity:1;fill-rule:nonzero;stroke:none"
             id="text7061"><tspan
               x="0 5.5078125 13.710938 20.859375 25.587891 30.316406 33.609375 41.203125 48.679688 54.931641"
               y="0"
               sodipodi:role="line"
               id="tspan7059">&quot;Settings&quot;</tspan></text>
<text
             transform="translate(4.921875,25)"
             style="font-variant:normal;font-weight:normal;font-size:12px;font-family:Verdana;-inkscape-font-specification:Verdana;writing-mode:lr-tb;fill:#000000;fill-opacity:1;fill-rule:nonzero;stroke:none"
             id="text7065"><tspan
               x="0 8.2265625 15.820312 20.548828 25.277344 32.560547 40.154297 44.373047 51.474609 54.767578 58.060547 64.3125 71.414062 78.5625"
               y="0"
               sodipodi:role="line"
               id="tspan7063">Button klicken</tspan></text>
</g><g
           id="g7067"
           transform="matrix(2.9891303,0,0,2.9891303,1.4945651,1.4945651)"><path
             d="m 114,231 v 20 H 54 v 9.63"
             style="fill:none;stroke:#000000;stroke-width:1;stroke-linecap:butt;stroke-linejoin:miter;stroke-miterlimit:10;stroke-dasharray:none;stroke-opacity:1"
             id="path7069"
             inkscape:connector-curvature="0" /><path
             d="m 54,265.88 -3.5,-7 3.5,1.75 3.5,-1.75 z"
             style="fill:#000000;fill-opacity:1;fill-rule:nonzero;stroke:none"
             id="path7071"
             inkscape:connector-curvature="0" /><path
             d="m 54,265.88 -3.5,-7 3.5,1.75 3.5,-1.75 z"
             style="fill:none;stroke:#000000;stroke-width:1;stroke-linecap:butt;stroke-linejoin:miter;stroke-miterlimit:10;stroke-dasharray:none;stroke-opacity:1"
             id="path7073"
             inkscape:connector-curvature="0" /><path
             d="m 84,191 h 60 c 1.31322,2e-5 2.61381,0.12811 3.90179,0.38431 1.28798,0.25619 2.53859,0.63556 3.75185,1.13809 1.21326,0.50255 2.36584,1.11861 3.45775,1.84819 1.09189,0.72958 2.10213,1.55867 3.03073,2.48724 0.92857,0.92858 1.75766,1.93883 2.48726,3.03074 0.72958,1.09188 1.34564,2.24446 1.84817,3.45773 0.50255,1.21326 0.88193,2.46388 1.13814,3.75188 0.2562,1.28799 0.38429,2.5886 0.38431,3.90182 -2e-5,1.3132 -0.12811,2.6138 -0.38431,3.90178 -0.25621,1.28798 -0.63559,2.53859 -1.13814,3.75185 -0.50253,1.21325 -1.11859,2.36584 -1.84817,3.45774 -0.7296,1.09191 -1.55869,2.10216 -2.48726,3.03075 -0.9286,0.92857 -1.93884,1.75766 -3.03075,2.48724 -1.0919,0.7296 -2.24447,1.34566 -3.45773,1.84821 -1.21326,0.50255 -2.46387,0.88191 -3.75185,1.13812 C 146.61381,230.8719 145.31322,231 144,231 H 84 c -1.313217,0 -2.613823,-0.1281 -3.90181,-0.38431 -1.287986,-0.25621 -2.538612,-0.63557 -3.751861,-1.13812 -1.213249,-0.50255 -2.36583,-1.11861 -3.457733,-1.84821 -1.091896,-0.72958 -2.102143,-1.55867 -3.030732,-2.48724 -0.928588,-0.92859 -1.757675,-1.93884 -2.487266,-3.03075 -0.729584,-1.0919 -1.34565,-2.24447 -1.848198,-3.45773 -0.502548,-1.21327 -0.88192,-2.46388 -1.138115,-3.75186 C 64.12809,213.6138 63.999996,212.3132 64,211 c -4e-6,-1.31322 0.12809,-2.61383 0.384285,-3.90181 0.256195,-1.28799 0.635567,-2.53862 1.138115,-3.75188 0.502548,-1.21327 1.118614,-2.36584 1.848198,-3.45774 0.729591,-1.09191 1.558678,-2.10216 2.487266,-3.03074 0.928589,-0.92857 1.938836,-1.75766 3.030732,-2.48724 1.091903,-0.72958 2.244484,-1.34564 3.457733,-1.84819 1.213249,-0.50253 2.463875,-0.8819 3.751861,-1.13811 C 81.386177,191.12811 82.686783,191.00002 84,191 Z"
             style="fill:#ffffff;fill-opacity:1;fill-rule:nonzero;stroke:none"
             id="path7075"
             inkscape:connector-curvature="0" /><path
             d="m 84,191 h 60 c 1.31322,2e-5 2.61381,0.12811 3.90179,0.38431 1.28798,0.25619 2.53859,0.63556 3.75185,1.13809 1.21326,0.50255 2.36584,1.11861 3.45775,1.84819 1.09189,0.72958 2.10213,1.55867 3.03073,2.48724 0.92857,0.92858 1.75766,1.93883 2.48726,3.03074 0.72958,1.09188 1.34564,2.24446 1.84817,3.45773 0.50255,1.21326 0.88193,2.46388 1.13814,3.75188 0.2562,1.28799 0.38429,2.5886 0.38431,3.90182 -2e-5,1.3132 -0.12811,2.6138 -0.38431,3.90178 -0.25621,1.28798 -0.63559,2.53859 -1.13814,3.75185 -0.50253,1.21325 -1.11859,2.36584 -1.84817,3.45774 -0.7296,1.09191 -1.55869,2.10216 -2.48726,3.03075 -0.9286,0.92857 -1.93884,1.75766 -3.03075,2.48724 -1.0919,0.7296 -2.24447,1.34566 -3.45773,1.84821 -1.21326,0.50255 -2.46387,0.88191 -3.75185,1.13812 C 146.61381,230.8719 145.31322,231 144,231 H 84 c -1.313217,0 -2.613823,-0.1281 -3.90181,-0.38431 -1.287986,-0.25621 -2.538612,-0.63557 -3.751861,-1.13812 -1.213249,-0.50255 -2.36583,-1.11861 -3.457733,-1.84821 -1.091896,-0.72958 -2.102143,-1.55867 -3.030732,-2.48724 -0.928588,-0.92859 -1.757675,-1.93884 -2.487266,-3.03075 -0.729584,-1.0919 -1.34565,-2.24447 -1.848198,-3.45773 -0.502548,-1.21327 -0.88192,-2.46388 -1.138115,-3.75186 C 64.12809,213.6138 63.999996,212.3132 64,211 c -4e-6,-1.31322 0.12809,-2.61383 0.384285,-3.90181 0.256195,-1.28799 0.635567,-2.53862 1.138115,-3.75188 0.502548,-1.21327 1.118614,-2.36584 1.848198,-3.45774 0.729591,-1.09191 1.558678,-2.10216 2.487266,-3.03074 0.928589,-0.92857 1.938836,-1.75766 3.030732,-2.48724 1.091903,-0.72958 2.244484,-1.34564 3.457733,-1.84819 1.213249,-0.50253 2.463875,-0.8819 3.751861,-1.13811 C 81.386177,191.12811 82.686783,191.00002 84,191 Z"
             style="fill:none;stroke:#000000;stroke-width:1;stroke-linecap:butt;stroke-linejoin:miter;stroke-miterlimit:10;stroke-dasharray:none;stroke-opacity:1"
             id="path7077"
             inkscape:connector-curvature="0" /></g><g
           id="g7079"
           transform="matrix(2.9891303,0,0,2.9891303,197.28259,591.84778)"><text
             transform="translate(7.703125,11)"
             style="font-variant:normal;font-weight:normal;font-size:12px;font-family:Verdana;-inkscape-font-specification:Verdana;writing-mode:lr-tb;fill:#000000;fill-opacity:1;fill-rule:nonzero;stroke:none"
             id="text7083"><tspan
               x="0 7.5878906 10.880859 18.474609 24.726562 29.455078 36.603516 39.896484 43.189453 50.783203 58.376953 65.853516 73.001953"
               y="0"
               sodipodi:role="line"
               id="tspan7081">Einstellungen</tspan></text>
<text
             transform="translate(26.921875,25)"
             style="font-variant:normal;font-weight:normal;font-size:12px;font-family:Verdana;-inkscape-font-specification:Verdana;writing-mode:lr-tb;fill:#000000;fill-opacity:1;fill-rule:nonzero;stroke:none"
             id="text7087"><tspan
               x="0 7.2070312 14.800781 22.277344 29.425781 34.546875"
               y="0"
               sodipodi:role="line"
               id="tspan7085">ändern</tspan></text>
</g><g
           id="g7089"
           transform="matrix(2.9891303,0,0,2.9891303,1.4945651,1.4945651)"><path
             d="M 54,347 V 534.63"
             style="fill:none;stroke:#000000;stroke-width:1;stroke-linecap:butt;stroke-linejoin:miter;stroke-miterlimit:10;stroke-dasharray:none;stroke-opacity:1"
             id="path7091"
             inkscape:connector-curvature="0" /><path
             d="m 54,539.88 -3.5,-7 3.5,1.75 3.5,-1.75 z"
             style="fill:#000000;fill-opacity:1;fill-rule:nonzero;stroke:none"
             id="path7093"
             inkscape:connector-curvature="0" /><path
             d="m 54,539.88 -3.5,-7 3.5,1.75 3.5,-1.75 z"
             style="fill:none;stroke:#000000;stroke-width:1;stroke-linecap:butt;stroke-linejoin:miter;stroke-miterlimit:10;stroke-dasharray:none;stroke-opacity:1"
             id="path7095"
             inkscape:connector-curvature="0" /></g><g
           id="g7097"
           transform="matrix(2.9891303,0,0,2.9891303,128.53261,1312.2282)"><path
             d="M 0,0 H 23 V 13 H 0 Z"
             style="fill:#ffffff;fill-opacity:1;fill-rule:nonzero;stroke:none"
             id="path7099"
             inkscape:connector-curvature="0" /><text
             transform="translate(0,10)"
             style="font-variant:normal;font-weight:normal;font-size:11px;font-family:Helvetica;-inkscape-font-specification:Helvetica;writing-mode:lr-tb;fill:#000000;fill-opacity:1;fill-rule:nonzero;stroke:none"
             id="text7103"><tspan
               x="0 7.9438477 14.061523 16.505371"
               y="0"
               sodipodi:role="line"
               id="tspan7101">Nein</tspan></text>
</g><g
           id="g7105"
           transform="matrix(2.9891303,0,0,2.9891303,1.4945651,1.4945651)"><path
             d="m 96,307 h 46.63"
             style="fill:none;stroke:#000000;stroke-width:1;stroke-linecap:butt;stroke-linejoin:miter;stroke-miterlimit:10;stroke-dasharray:none;stroke-opacity:1"
             id="path7107"
             inkscape:connector-curvature="0" /><path
             d="m 147.88,307 -7,3.5 1.75,-3.5 -1.75,-3.5 z"
             style="fill:#000000;fill-opacity:1;fill-rule:nonzero;stroke:none"
             id="path7109"
             inkscape:connector-curvature="0" /><path
             d="m 147.88,307 -7,3.5 1.75,-3.5 -1.75,-3.5 z"
             style="fill:none;stroke:#000000;stroke-width:1;stroke-linecap:butt;stroke-linejoin:miter;stroke-miterlimit:10;stroke-dasharray:none;stroke-opacity:1"
             id="path7111"
             inkscape:connector-curvature="0" /><path
             d="M 53.5,267 96,307 53.5,347 11,307 Z"
             style="fill:#ffffff;fill-opacity:1;fill-rule:nonzero;stroke:none"
             id="path7113"
             inkscape:connector-curvature="0" /><path
             d="M 53.5,267 96,307 53.5,347 11,307 Z"
             style="fill:none;stroke:#000000;stroke-width:1;stroke-linecap:butt;stroke-linejoin:miter;stroke-miterlimit:10;stroke-dasharray:none;stroke-opacity:1"
             id="path7115"
             inkscape:connector-curvature="0" /></g><g
           id="g7117"
           transform="matrix(2.9891303,0,0,2.9891303,77.717384,899.72821)"><text
             transform="translate(0,11)"
             style="font-variant:normal;font-weight:normal;font-size:12px;font-family:Helvetica;-inkscape-font-specification:Helvetica;writing-mode:lr-tb;fill:#000000;fill-opacity:1;fill-rule:nonzero;stroke:none"
             id="text7121"><tspan
               x="0 8.0039062 10.669922 13.335938 20.009766 26.009766 29.34375 32.009766 35.34375 44.677734 48.011719"
               y="0"
               sodipodi:role="line"
               id="tspan7119">Alles i.O.?</tspan></text>
</g><g
           id="g7123"
           transform="matrix(2.9891303,0,0,2.9891303,1.4945651,1.4945651)"><path
             d="m 164,292 h 70 c 0.98491,0 1.96034,0.0961 2.92632,0.28821 0.96598,0.19214 1.90394,0.47665 2.81388,0.85354 0.90995,0.37693 1.77439,0.83896 2.59333,1.38617 0.81892,0.54718 1.5766,1.16901 2.27305,1.86545 0.69643,0.69644 1.31824,1.4541 1.86542,2.27301 0.5472,0.81894 1.00925,1.68338 1.38615,2.59332 0.37691,0.90995 0.66146,1.8479 0.85361,2.81391 0.19216,0.966 0.28822,1.94147 0.28824,2.92639 -2e-5,0.98489 -0.0961,1.96036 -0.28824,2.92633 -0.19215,0.96597 -0.4767,1.90396 -0.85361,2.8139 -0.3769,0.90992 -0.83895,1.77433 -1.38615,2.59327 -0.54718,0.81894 -1.16899,1.57663 -1.86542,2.27307 -0.69645,0.69644 -1.45413,1.31827 -2.27305,1.86541 -0.81893,0.54722 -1.68337,1.00925 -2.59331,1.38617 -0.90996,0.37693 -1.84792,0.66144 -2.81389,0.85361 C 235.96034,321.90393 234.98491,322 234,322 h -70 c -0.98491,0 -1.96037,-0.0961 -2.92636,-0.28824 -0.96599,-0.19217 -1.90395,-0.47668 -2.81391,-0.85361 -0.90994,-0.37692 -1.77438,-0.83895 -2.5933,-1.38617 -0.81893,-0.54714 -1.57662,-1.16897 -2.27304,-1.86541 -0.69643,-0.69644 -1.31826,-1.45413 -1.86545,-2.27307 -0.5472,-0.81894 -1.00925,-1.68335 -1.38616,-2.59327 -0.3769,-0.90994 -0.66143,-1.84793 -0.85357,-2.8139 C 149.09605,308.96036 148.99998,307.98489 149,307 c -2e-5,-0.98492 0.096,-1.96039 0.28821,-2.92639 0.19214,-0.96601 0.47667,-1.90396 0.85357,-2.81391 0.37691,-0.90994 0.83896,-1.77438 1.38616,-2.59332 0.54719,-0.81891 1.16902,-1.57657 1.86545,-2.27301 0.69642,-0.69644 1.45411,-1.31827 2.27305,-1.86548 0.81893,-0.54718 1.68335,-1.00921 2.59329,-1.38614 0.90996,-0.37689 1.84792,-0.6614 2.81391,-0.85354 C 162.03963,292.09607 163.01509,292 164,292 Z"
             style="fill:#ffffff;fill-opacity:1;fill-rule:nonzero;stroke:none"
             id="path7125"
             inkscape:connector-curvature="0" /><path
             d="m 164,292 h 70 c 0.98491,0 1.96034,0.0961 2.92632,0.28821 0.96598,0.19214 1.90394,0.47665 2.81388,0.85354 0.90995,0.37693 1.77439,0.83896 2.59333,1.38617 0.81892,0.54718 1.5766,1.16901 2.27305,1.86545 0.69643,0.69644 1.31824,1.4541 1.86542,2.27301 0.5472,0.81894 1.00925,1.68338 1.38615,2.59332 0.37691,0.90995 0.66146,1.8479 0.85361,2.81391 0.19216,0.966 0.28822,1.94147 0.28824,2.92639 -2e-5,0.98489 -0.0961,1.96036 -0.28824,2.92633 -0.19215,0.96597 -0.4767,1.90396 -0.85361,2.8139 -0.3769,0.90992 -0.83895,1.77433 -1.38615,2.59327 -0.54718,0.81894 -1.16899,1.57663 -1.86542,2.27307 -0.69645,0.69644 -1.45413,1.31827 -2.27305,1.86541 -0.81893,0.54722 -1.68337,1.00925 -2.59331,1.38617 -0.90996,0.37693 -1.84792,0.66144 -2.81389,0.85361 C 235.96034,321.90393 234.98491,322 234,322 h -70 c -0.98491,0 -1.96037,-0.0961 -2.92636,-0.28824 -0.96599,-0.19217 -1.90395,-0.47668 -2.81391,-0.85361 -0.90994,-0.37692 -1.77438,-0.83895 -2.5933,-1.38617 -0.81893,-0.54714 -1.57662,-1.16897 -2.27304,-1.86541 -0.69643,-0.69644 -1.31826,-1.45413 -1.86545,-2.27307 -0.5472,-0.81894 -1.00925,-1.68335 -1.38616,-2.59327 -0.3769,-0.90994 -0.66143,-1.84793 -0.85357,-2.8139 C 149.09605,308.96036 148.99998,307.98489 149,307 c -2e-5,-0.98492 0.096,-1.96039 0.28821,-2.92639 0.19214,-0.96601 0.47667,-1.90396 0.85357,-2.81391 0.37691,-0.90994 0.83896,-1.77438 1.38616,-2.59332 0.54719,-0.81891 1.16902,-1.57657 1.86545,-2.27301 0.69642,-0.69644 1.45411,-1.31827 2.27305,-1.86548 0.81893,-0.54718 1.68335,-1.00921 2.59329,-1.38614 0.90996,-0.37689 1.84792,-0.6614 2.81391,-0.85354 C 162.03963,292.09607 163.01509,292 164,292 Z"
             style="fill:none;stroke:#000000;stroke-width:1;stroke-linecap:butt;stroke-linejoin:miter;stroke-miterlimit:10;stroke-dasharray:none;stroke-opacity:1"
             id="path7127"
             inkscape:connector-curvature="0" /></g><g
           id="g7129"
           transform="matrix(2.9891303,0,0,2.9891303,451.35867,878.80432)"><text
             transform="translate(12.03125,11)"
             style="font-variant:normal;font-weight:normal;font-size:12px;font-family:Verdana;-inkscape-font-specification:Verdana;writing-mode:lr-tb;fill:#000000;fill-opacity:1;fill-rule:nonzero;stroke:none"
             id="text7133"><tspan
               x="0 5.5078125 14.953125 22.054688 27.5625 31.78125 40.007812 47.601562 52.330078 57.058594 64.341797"
               y="0"
               sodipodi:role="line"
               id="tspan7131">&quot;Ok&quot; Button</tspan></text>
<text
             transform="translate(27.109375,25)"
             style="font-variant:normal;font-weight:normal;font-size:12px;font-family:Verdana;-inkscape-font-specification:Verdana;writing-mode:lr-tb;fill:#000000;fill-opacity:1;fill-rule:nonzero;stroke:none"
             id="text7137"><tspan
               x="0 7.1015625 10.394531 13.6875 19.939453 27.041016 34.189453"
               y="0"
               sodipodi:role="line"
               id="tspan7135">klicken</tspan></text>
<text
             transform="translate(68.890625,25)"
             style="font-variant:normal;font-weight:normal;font-size:12px;font-family:Verdana;-inkscape-font-specification:Verdana;writing-mode:lr-tb;fill:#000000;fill-opacity:1;fill-rule:nonzero;stroke:none"
             id="text7141"><tspan
               x="0"
               y="0"
               id="tspan7139"> </tspan></text>
</g><g
           id="g7143"
           transform="matrix(2.9891303,0,0,2.9891303,1.4945651,1.4945651)"><path
             d="m 18.5,541 h 70 c 0.984909,0 1.960358,0.0961 2.926346,0.28821 0.965996,0.19214 1.903961,0.47662 2.813896,0.85351 0.909935,0.3769 1.774368,0.83899 2.5933,1.38617 0.818924,0.54718 1.576607,1.16901 2.273048,1.86548 0.696434,0.69647 1.31825,1.45416 1.86544,2.27307 0.54719,0.81897 1.00923,1.68341 1.38615,2.59333 0.37691,0.90991 0.66144,1.84783 0.85359,2.81384 0.19215,0.966 0.28822,1.94147 0.28823,2.92639 -1e-5,0.98492 -0.0961,1.96033 -0.28823,2.92633 -0.19215,0.966 -0.47668,1.90393 -0.85359,2.81384 -0.37692,0.90992 -0.83896,1.77436 -1.38615,2.59333 -0.54719,0.8189 -1.169006,1.5766 -1.86544,2.27307 -0.696441,0.69641 -1.454124,1.31817 -2.273056,1.86535 -0.818924,0.54718 -1.683357,1.00928 -2.593292,1.38617 -0.909935,0.3769 -1.8479,0.66144 -2.813896,0.85364 C 90.460358,570.90387 89.484909,570.99994 88.5,571 h -70 c -0.984915,-6e-5 -1.960367,-0.0961 -2.926356,-0.28827 -0.965989,-0.1922 -1.903955,-0.47674 -2.813896,-0.85364 -0.909942,-0.37689 -1.774376,-0.83892 -2.593302,-1.38611 -0.8189261,-0.54718 -1.5766089,-1.169 -2.2730482,-1.86541 C 7.1969585,565.9101 6.5751443,565.1524 6.0279551,564.3335 5.4807658,563.51453 5.0187163,562.65009 4.6418061,561.74017 4.2648959,560.83026 3.9803674,559.89233 3.7882204,558.92633 3.5960732,557.96033 3.4999998,556.98492 3.5,556 c -2e-7,-0.98492 0.096073,-1.96039 0.2882202,-2.92639 0.192147,-0.96601 0.4766757,-1.90399 0.8535859,-2.81391 0.3769102,-0.90991 0.8389602,-1.77435 1.3861494,-2.59332 0.5471888,-0.81891 1.169003,-1.57654 1.8654423,-2.27301 0.6964393,-0.69647 1.4541221,-1.3183 2.2730482,-1.86548 0.818926,-0.54718 1.68336,-1.00927 2.593302,-1.38617 0.909941,-0.37689 1.847907,-0.66137 2.813896,-0.85351 C 16.539633,541.09607 17.515085,541 18.5,541 Z"
             style="fill:#ffffff;fill-opacity:1;fill-rule:nonzero;stroke:none"
             id="path7145"
             inkscape:connector-curvature="0" /><path
             d="m 18.5,541 h 70 c 0.984909,0 1.960358,0.0961 2.926346,0.28821 0.965996,0.19214 1.903961,0.47662 2.813896,0.85351 0.909935,0.3769 1.774368,0.83899 2.5933,1.38617 0.818924,0.54718 1.576607,1.16901 2.273048,1.86548 0.696434,0.69647 1.31825,1.45416 1.86544,2.27307 0.54719,0.81897 1.00923,1.68341 1.38615,2.59333 0.37691,0.90991 0.66144,1.84783 0.85359,2.81384 0.19215,0.966 0.28822,1.94147 0.28823,2.92639 -1e-5,0.98492 -0.0961,1.96033 -0.28823,2.92633 -0.19215,0.966 -0.47668,1.90393 -0.85359,2.81384 -0.37692,0.90992 -0.83896,1.77436 -1.38615,2.59333 -0.54719,0.8189 -1.169006,1.5766 -1.86544,2.27307 -0.696441,0.69641 -1.454124,1.31817 -2.273056,1.86535 -0.818924,0.54718 -1.683357,1.00928 -2.593292,1.38617 -0.909935,0.3769 -1.8479,0.66144 -2.813896,0.85364 C 90.460358,570.90387 89.484909,570.99994 88.5,571 h -70 c -0.984915,-6e-5 -1.960367,-0.0961 -2.926356,-0.28827 -0.965989,-0.1922 -1.903955,-0.47674 -2.813896,-0.85364 -0.909942,-0.37689 -1.774376,-0.83892 -2.593302,-1.38611 -0.8189261,-0.54718 -1.5766089,-1.169 -2.2730482,-1.86541 C 7.1969585,565.9101 6.5751443,565.1524 6.0279551,564.3335 5.4807658,563.51453 5.0187163,562.65009 4.6418061,561.74017 4.2648959,560.83026 3.9803674,559.89233 3.7882204,558.92633 3.5960732,557.96033 3.4999998,556.98492 3.5,556 c -2e-7,-0.98492 0.096073,-1.96039 0.2882202,-2.92639 0.192147,-0.96601 0.4766757,-1.90399 0.8535859,-2.81391 0.3769102,-0.90991 0.8389602,-1.77435 1.3861494,-2.59332 0.5471888,-0.81891 1.169003,-1.57654 1.8654423,-2.27301 0.6964393,-0.69647 1.4541221,-1.3183 2.2730482,-1.86548 0.818926,-0.54718 1.68336,-1.00927 2.593302,-1.38617 0.909941,-0.37689 1.847907,-0.66137 2.813896,-0.85351 C 16.539633,541.09607 17.515085,541 18.5,541 Z"
             style="fill:none;stroke:#000000;stroke-width:1;stroke-linecap:butt;stroke-linejoin:miter;stroke-miterlimit:10;stroke-dasharray:none;stroke-opacity:1"
             id="path7147"
             inkscape:connector-curvature="0" /></g><g
           id="g7149"
           transform="matrix(2.9891303,0,0,2.9891303,17.934782,1623.0978)"><text
             transform="translate(0.375,11)"
             style="font-variant:normal;font-weight:normal;font-size:12px;font-family:Verdana;-inkscape-font-specification:Verdana;writing-mode:lr-tb;fill:#000000;fill-opacity:1;fill-rule:nonzero;stroke:none"
             id="text7153"><tspan
               x="0 5.5078125 13.886719 21.09375 28.6875 34.939453 42.087891 45.380859 50.888672 55.107422 63.333984 70.927734 75.65625 80.384766 87.667969"
               y="0"
               sodipodi:role="line"
               id="tspan7151">&quot;Cancel&quot; Button</tspan></text>
<text
             transform="translate(27.109375,25)"
             style="font-variant:normal;font-weight:normal;font-size:12px;font-family:Verdana;-inkscape-font-specification:Verdana;writing-mode:lr-tb;fill:#000000;fill-opacity:1;fill-rule:nonzero;stroke:none"
             id="text7157"><tspan
               x="0 7.1015625 10.394531 13.6875 19.939453 27.041016 34.189453"
               y="0"
               sodipodi:role="line"
               id="tspan7155">klicken</tspan></text>
<text
             transform="translate(68.890625,25)"
             style="font-variant:normal;font-weight:normal;font-size:12px;font-family:Verdana;-inkscape-font-specification:Verdana;writing-mode:lr-tb;fill:#000000;fill-opacity:1;fill-rule:nonzero;stroke:none"
             id="text7161"><tspan
               x="0"
               y="0"
               id="tspan7159"> </tspan></text>
</g><g
           id="g7163"
           transform="matrix(2.9891303,0,0,2.9891303,1.4945651,1.4945651)"><path
             d="m 163.5,417 v 47.63"
             style="fill:none;stroke:#000000;stroke-width:1;stroke-linecap:butt;stroke-linejoin:miter;stroke-miterlimit:10;stroke-dasharray:none;stroke-opacity:1"
             id="path7165"
             inkscape:connector-curvature="0" /><path
             d="m 163.5,469.88 -3.5,-7 3.5,1.75 3.5,-1.75 z"
             style="fill:#000000;fill-opacity:1;fill-rule:nonzero;stroke:none"
             id="path7167"
             inkscape:connector-curvature="0" /><path
             d="m 163.5,469.88 -3.5,-7 3.5,1.75 3.5,-1.75 z"
             style="fill:none;stroke:#000000;stroke-width:1;stroke-linecap:butt;stroke-linejoin:miter;stroke-miterlimit:10;stroke-dasharray:none;stroke-opacity:1"
             id="path7169"
             inkscape:connector-curvature="0" /><path
             d="m 128.5,387 h 70 c 0.98491,0 1.96034,0.0961 2.92632,0.28818 0.96598,0.19217 1.90396,0.47668 2.81388,0.85357 0.90993,0.37693 1.77437,0.83896 2.59331,1.38617 0.81893,0.54721 1.57662,1.16901 2.27307,1.86545 0.69643,0.69644 1.31824,1.4541 1.86544,2.27301 0.54718,0.81894 1.00923,1.68335 1.38615,2.59329 0.37691,0.90998 0.66144,1.84797 0.85359,2.81394 0.19216,0.966 0.28822,1.94147 0.28824,2.92639 -2e-5,0.98489 -0.0961,1.9603 -0.28824,2.92627 -0.19215,0.96597 -0.47668,1.90396 -0.85359,2.8139 -0.37692,0.90995 -0.83897,1.77439 -1.38615,2.5933 -0.5472,0.81893 -1.16901,1.57663 -1.86544,2.2731 -0.69645,0.69644 -1.45413,1.31823 -2.27305,1.86541 -0.81894,0.54722 -1.68338,1.00925 -2.59331,1.38617 -0.90994,0.37693 -1.8479,0.66144 -2.81389,0.85358 -0.96599,0.19217 -1.94142,0.28824 -2.92633,0.28827 h -70 c -0.98492,-3e-5 -1.96036,-0.0961 -2.92636,-0.28827 -0.966,-0.19214 -1.90396,-0.47665 -2.8139,-0.85358 -0.90994,-0.37692 -1.77437,-0.83895 -2.59331,-1.38617 -0.81893,-0.54718 -1.5766,-1.16897 -2.27304,-1.86541 -0.69644,-0.69647 -1.31826,-1.45417 -1.86544,-2.27307 -0.54719,-0.81894 -1.00924,-1.68335 -1.38616,-2.5933 -0.37691,-0.90997 -0.66144,-1.84793 -0.85358,-2.8139 -0.19215,-0.96597 -0.28822,-1.94141 -0.28821,-2.9263 -1e-5,-0.98492 0.0961,-1.96039 0.28821,-2.92639 0.19214,-0.96597 0.47667,-1.90396 0.85358,-2.81394 0.37692,-0.90994 0.83897,-1.77438 1.38616,-2.59332 0.54718,-0.81888 1.169,-1.57654 1.86544,-2.27298 0.69644,-0.69644 1.45411,-1.31824 2.27304,-1.86545 0.81893,-0.54721 1.68336,-1.00924 2.5933,-1.38617 0.90995,-0.37689 1.84791,-0.6614 2.8139,-0.85357 C 126.53963,387.09607 127.51508,387 128.5,387 Z"
             style="fill:#ffffff;fill-opacity:1;fill-rule:nonzero;stroke:none"
             id="path7171"
             inkscape:connector-curvature="0" /><path
             d="m 128.5,387 h 70 c 0.98491,0 1.96034,0.0961 2.92632,0.28818 0.96598,0.19217 1.90396,0.47668 2.81388,0.85357 0.90993,0.37693 1.77437,0.83896 2.59331,1.38617 0.81893,0.54721 1.57662,1.16901 2.27307,1.86545 0.69643,0.69644 1.31824,1.4541 1.86544,2.27301 0.54718,0.81894 1.00923,1.68335 1.38615,2.59329 0.37691,0.90998 0.66144,1.84797 0.85359,2.81394 0.19216,0.966 0.28822,1.94147 0.28824,2.92639 -2e-5,0.98489 -0.0961,1.9603 -0.28824,2.92627 -0.19215,0.96597 -0.47668,1.90396 -0.85359,2.8139 -0.37692,0.90995 -0.83897,1.77439 -1.38615,2.5933 -0.5472,0.81893 -1.16901,1.57663 -1.86544,2.2731 -0.69645,0.69644 -1.45413,1.31823 -2.27305,1.86541 -0.81894,0.54722 -1.68338,1.00925 -2.59331,1.38617 -0.90994,0.37693 -1.8479,0.66144 -2.81389,0.85358 -0.96599,0.19217 -1.94142,0.28824 -2.92633,0.28827 h -70 c -0.98492,-3e-5 -1.96036,-0.0961 -2.92636,-0.28827 -0.966,-0.19214 -1.90396,-0.47665 -2.8139,-0.85358 -0.90994,-0.37692 -1.77437,-0.83895 -2.59331,-1.38617 -0.81893,-0.54718 -1.5766,-1.16897 -2.27304,-1.86541 -0.69644,-0.69647 -1.31826,-1.45417 -1.86544,-2.27307 -0.54719,-0.81894 -1.00924,-1.68335 -1.38616,-2.5933 -0.37691,-0.90997 -0.66144,-1.84793 -0.85358,-2.8139 -0.19215,-0.96597 -0.28822,-1.94141 -0.28821,-2.9263 -1e-5,-0.98492 0.0961,-1.96039 0.28821,-2.92639 0.19214,-0.96597 0.47667,-1.90396 0.85358,-2.81394 0.37692,-0.90994 0.83897,-1.77438 1.38616,-2.59332 0.54718,-0.81888 1.169,-1.57654 1.86544,-2.27298 0.69644,-0.69644 1.45411,-1.31824 2.27304,-1.86545 0.81893,-0.54721 1.68336,-1.00924 2.5933,-1.38617 0.90995,-0.37689 1.84791,-0.6614 2.8139,-0.85357 C 126.53963,387.09607 127.51508,387 128.5,387 Z"
             style="fill:none;stroke:#000000;stroke-width:1;stroke-linecap:butt;stroke-linejoin:miter;stroke-miterlimit:10;stroke-dasharray:none;stroke-opacity:1"
             id="path7173"
             inkscape:connector-curvature="0" /></g><g
           id="g7175"
           transform="matrix(2.9891303,0,0,2.9891303,355.70651,1162.7717)"><text
             transform="translate(0.265625,11)"
             style="font-variant:normal;font-weight:normal;font-size:12px;font-family:Verdana;-inkscape-font-specification:Verdana;writing-mode:lr-tb;fill:#000000;fill-opacity:1;fill-rule:nonzero;stroke:none"
             id="text7179"><tspan
               x="0 6.8964844 14.044922 21.638672 24.931641 32.080078 37.201172 48.873047 56.021484 59.314453 66.791016 74.384766 81.978516"
               y="0"
               sodipodi:role="line"
               id="tspan7177">Fehlermeldung</tspan></text>
<text
             transform="translate(89.71875,11)"
             style="font-variant:normal;font-weight:normal;font-size:12px;font-family:Verdana;-inkscape-font-specification:Verdana;writing-mode:lr-tb;fill:#000000;fill-opacity:1;fill-rule:nonzero;stroke:none"
             id="text7183"><tspan
               x="0"
               y="0"
               id="tspan7181"> </tspan></text>
<text
             transform="translate(18.296875,25)"
             style="font-variant:normal;font-weight:normal;font-size:12px;font-family:Verdana;-inkscape-font-specification:Verdana;writing-mode:lr-tb;fill:#000000;fill-opacity:1;fill-rule:nonzero;stroke:none"
             id="text7187"><tspan
               x="0 7.4765625 15.070312 18.363281 23.091797 26.384766 33.533203 38.654297 45.802734"
               y="0"
               sodipodi:role="line"
               id="tspan7185">quitieren</tspan></text>
<text
             transform="translate(71.6875,25)"
             style="font-variant:normal;font-weight:normal;font-size:12px;font-family:Verdana;-inkscape-font-specification:Verdana;writing-mode:lr-tb;fill:#000000;fill-opacity:1;fill-rule:nonzero;stroke:none"
             id="text7191"><tspan
               x="0"
               y="0"
               id="tspan7189"> </tspan></text>
</g><g
           id="g7193"
           transform="matrix(2.9891303,0,0,2.9891303,1.4945651,1.4945651)"><path
             d="m 184,491 c -2e-5,1.3132 -0.12811,2.61377 -0.38431,3.90176 -0.25619,1.288 -0.63556,2.53861 -1.13811,3.75183 -0.50254,1.21326 -1.11862,2.36585 -1.8482,3.45774 -0.72958,1.09189 -1.55867,2.10214 -2.48724,3.03076 -0.92859,0.92859 -1.93883,1.75766 -3.03074,2.48724 -1.0919,0.72959 -2.24449,1.34565 -3.45774,1.84818 -1.21326,0.50256 -2.46389,0.88196 -3.75187,1.13815 C 166.61381,510.87189 165.31322,511 164,511 c -1.31322,0 -2.61383,-0.12811 -3.90183,-0.38431 -1.28797,-0.25622 -2.5386,-0.63562 -3.75186,-1.13818 -1.21325,-0.50253 -2.36584,-1.11862 -3.45775,-1.84821 -1.0919,-0.72955 -2.10214,-1.55862 -3.03071,-2.48721 -0.92861,-0.92862 -1.75769,-1.93887 -2.48728,-3.03079 -0.72958,-1.09189 -1.34564,-2.24445 -1.84817,-3.45771 -0.50255,-1.21322 -0.88193,-2.46383 -1.13812,-3.75183 C 144.12808,493.61377 143.99998,492.3132 144,491 c -2e-5,-1.31323 0.12808,-2.61383 0.38428,-3.90182 0.25619,-1.288 0.63557,-2.53861 1.13812,-3.75187 0.50253,-1.21328 1.11859,-2.36587 1.84817,-3.45779 0.72959,-1.09189 1.55867,-2.10211 2.48728,-3.03067 0.92857,-0.92859 1.93881,-1.75769 3.03071,-2.48728 1.09191,-0.72958 2.2445,-1.34567 3.45775,-1.8482 1.21326,-0.50253 2.46389,-0.8819 3.75186,-1.13809 C 161.38617,471.12808 162.68678,471 164,471 c 1.31322,0 2.61381,0.12808 3.90179,0.38428 1.28798,0.25619 2.53861,0.63556 3.75187,1.13809 1.21325,0.50253 2.36584,1.11859 3.45774,1.84817 1.09191,0.72962 2.10215,1.55872 3.03074,2.48731 0.92857,0.92856 1.75766,1.93881 2.48724,3.0307 0.72958,1.09189 1.34566,2.24448 1.8482,3.45773 0.50255,1.21326 0.88192,2.4639 1.13811,3.7519 0.2562,1.28799 0.38429,2.58859 0.38431,3.90182 z"
             style="fill:#ffffff;fill-opacity:1;fill-rule:nonzero;stroke:none"
             id="path7195"
             inkscape:connector-curvature="0" /><path
             d="m 184,491 c -2e-5,1.3132 -0.12811,2.61377 -0.38431,3.90176 -0.25619,1.288 -0.63556,2.53861 -1.13811,3.75183 -0.50254,1.21326 -1.11862,2.36585 -1.8482,3.45774 -0.72958,1.09189 -1.55867,2.10214 -2.48724,3.03076 -0.92859,0.92859 -1.93883,1.75766 -3.03074,2.48724 -1.0919,0.72959 -2.24449,1.34565 -3.45774,1.84818 -1.21326,0.50256 -2.46389,0.88196 -3.75187,1.13815 C 166.61381,510.87189 165.31322,511 164,511 c -1.31322,0 -2.61383,-0.12811 -3.90183,-0.38431 -1.28797,-0.25622 -2.5386,-0.63562 -3.75186,-1.13818 -1.21325,-0.50253 -2.36584,-1.11862 -3.45775,-1.84821 -1.0919,-0.72955 -2.10214,-1.55862 -3.03071,-2.48721 -0.92861,-0.92862 -1.75769,-1.93887 -2.48728,-3.03079 -0.72958,-1.09189 -1.34564,-2.24445 -1.84817,-3.45771 -0.50255,-1.21322 -0.88193,-2.46383 -1.13812,-3.75183 C 144.12808,493.61377 143.99998,492.3132 144,491 c -2e-5,-1.31323 0.12808,-2.61383 0.38428,-3.90182 0.25619,-1.288 0.63557,-2.53861 1.13812,-3.75187 0.50253,-1.21328 1.11859,-2.36587 1.84817,-3.45779 0.72959,-1.09189 1.55867,-2.10211 2.48728,-3.03067 0.92857,-0.92859 1.93881,-1.75769 3.03071,-2.48728 1.09191,-0.72958 2.2445,-1.34567 3.45775,-1.8482 1.21326,-0.50253 2.46389,-0.8819 3.75186,-1.13809 C 161.38617,471.12808 162.68678,471 164,471 c 1.31322,0 2.61381,0.12808 3.90179,0.38428 1.28798,0.25619 2.53861,0.63556 3.75187,1.13809 1.21325,0.50253 2.36584,1.11859 3.45774,1.84817 1.09191,0.72962 2.10215,1.55872 3.03074,2.48731 0.92857,0.92856 1.75766,1.93881 2.48724,3.0307 0.72958,1.09189 1.34566,2.24448 1.8482,3.45773 0.50255,1.21326 0.88192,2.4639 1.13811,3.7519 0.2562,1.28799 0.38429,2.58859 0.38431,3.90182 z"
             style="fill:none;stroke:#000000;stroke-width:1;stroke-linecap:butt;stroke-linejoin:miter;stroke-miterlimit:10;stroke-dasharray:none;stroke-opacity:1"
             id="path7197"
             inkscape:connector-curvature="0" /><path
             d="m 182,491 c -2e-5,1.18185 -0.11531,2.35239 -0.34589,3.51157 -0.23059,1.15918 -0.57202,2.28473 -1.0243,3.37667 -0.4523,1.09189 -1.00676,2.12922 -1.66338,3.11197 -0.65663,0.98273 -1.4028,1.89197 -2.23852,2.7277 -0.83574,0.83572 -1.74497,1.58187 -2.72768,2.23846 -0.98271,0.65665 -2.02002,1.21112 -3.11195,1.66342 -1.09194,0.4523 -2.21749,0.79373 -3.37667,1.02429 -1.15918,0.23059 -2.32971,0.34589 -3.51161,0.34592 -1.1819,-3e-5 -2.35245,-0.11533 -3.51164,-0.34592 -1.1592,-0.23059 -2.28475,-0.57202 -3.37668,-1.02432 -1.09194,-0.4523 -2.12927,-1.00674 -3.11199,-1.66339 -0.98271,-0.65659 -1.89192,-1.40274 -2.72763,-2.23846 -0.83574,-0.83573 -1.58192,-1.74497 -2.23855,-2.72773 -0.65663,-0.98272 -1.21108,-2.02005 -1.66336,-3.11194 -0.45229,-1.09194 -0.79373,-2.21749 -1.02431,-3.37667 C 146.11526,493.35239 145.99998,492.18185 146,491 c -2e-5,-1.18192 0.11526,-2.35245 0.34584,-3.51166 0.23058,-1.15921 0.57202,-2.28476 1.02431,-3.37671 0.45228,-1.09195 1.00673,-2.12927 1.66336,-3.11197 0.65663,-0.98269 1.40281,-1.8919 2.23855,-2.72763 0.83571,-0.83572 1.74494,-1.58191 2.72765,-2.23852 0.98271,-0.65662 2.02003,-1.21109 3.11197,-1.66339 1.09193,-0.4523 2.21748,-0.7937 3.37668,-1.02426 C 161.64755,473.1153 162.8181,473 164,473 c 1.1819,0 2.35243,0.1153 3.51161,0.34586 1.15918,0.23053 2.28473,0.57193 3.37667,1.02423 1.09193,0.4523 2.12924,1.00677 3.11195,1.66342 0.98271,0.65661 1.89194,1.4028 2.72768,2.23852 0.83572,0.83573 1.58189,1.74494 2.23852,2.72763 0.65662,0.9827 1.21108,2.02002 1.66338,3.11197 0.45228,1.09195 0.79371,2.2175 1.0243,3.37671 0.23058,1.15921 0.34587,2.32974 0.34589,3.51166 z"
             style="fill:#000000;fill-opacity:1;fill-rule:nonzero;stroke:none"
             id="path7199"
             inkscape:connector-curvature="0" /><path
             d="m 182,491 c -2e-5,1.18185 -0.11531,2.35239 -0.34589,3.51157 -0.23059,1.15918 -0.57202,2.28473 -1.0243,3.37667 -0.4523,1.09189 -1.00676,2.12922 -1.66338,3.11197 -0.65663,0.98273 -1.4028,1.89197 -2.23852,2.7277 -0.83574,0.83572 -1.74497,1.58187 -2.72768,2.23846 -0.98271,0.65665 -2.02002,1.21112 -3.11195,1.66342 -1.09194,0.4523 -2.21749,0.79373 -3.37667,1.02429 -1.15918,0.23059 -2.32971,0.34589 -3.51161,0.34592 -1.1819,-3e-5 -2.35245,-0.11533 -3.51164,-0.34592 -1.1592,-0.23059 -2.28475,-0.57202 -3.37668,-1.02432 -1.09194,-0.4523 -2.12927,-1.00674 -3.11199,-1.66339 -0.98271,-0.65659 -1.89192,-1.40274 -2.72763,-2.23846 -0.83574,-0.83573 -1.58192,-1.74497 -2.23855,-2.72773 -0.65663,-0.98272 -1.21108,-2.02005 -1.66336,-3.11194 -0.45229,-1.09194 -0.79373,-2.21749 -1.02431,-3.37667 C 146.11526,493.35239 145.99998,492.18185 146,491 c -2e-5,-1.18192 0.11526,-2.35245 0.34584,-3.51166 0.23058,-1.15921 0.57202,-2.28476 1.02431,-3.37671 0.45228,-1.09195 1.00673,-2.12927 1.66336,-3.11197 0.65663,-0.98269 1.40281,-1.8919 2.23855,-2.72763 0.83571,-0.83572 1.74494,-1.58191 2.72765,-2.23852 0.98271,-0.65662 2.02003,-1.21109 3.11197,-1.66339 1.09193,-0.4523 2.21748,-0.7937 3.37668,-1.02426 C 161.64755,473.1153 162.8181,473 164,473 c 1.1819,0 2.35243,0.1153 3.51161,0.34586 1.15918,0.23053 2.28473,0.57193 3.37667,1.02423 1.09193,0.4523 2.12924,1.00677 3.11195,1.66342 0.98271,0.65661 1.89194,1.4028 2.72768,2.23852 0.83572,0.83573 1.58189,1.74494 2.23852,2.72763 0.65662,0.9827 1.21108,2.02002 1.66338,3.11197 0.45228,1.09195 0.79371,2.2175 1.0243,3.37671 0.23058,1.15921 0.34587,2.32974 0.34589,3.51166 z"
             style="fill:none;stroke:#ffffff;stroke-width:1;stroke-linecap:butt;stroke-linejoin:miter;stroke-miterlimit:10;stroke-dasharray:none;stroke-opacity:1"
             id="path7201"
             inkscape:connector-curvature="0" /><path
             d="m 374,186 v 25 H 170.37"
             style="fill:none;stroke:#000000;stroke-width:1;stroke-linecap:butt;stroke-linejoin:miter;stroke-miterlimit:10;stroke-dasharray:none;stroke-opacity:1"
             id="path7203"
             inkscape:connector-curvature="0" /><path
             d="m 165.11999,211 7.00001,-3.5 -1.75,3.5 1.75,3.5 z"
             style="fill:#000000;fill-opacity:1;fill-rule:nonzero;stroke:none"
             id="path7205"
             inkscape:connector-curvature="0" /><path
             d="m 165.11999,211 7.00001,-3.5 -1.75,3.5 1.75,3.5 z"
             style="fill:none;stroke:#000000;stroke-width:1;stroke-linecap:butt;stroke-linejoin:miter;stroke-miterlimit:10;stroke-dasharray:none;stroke-opacity:1"
             id="path7207"
             inkscape:connector-curvature="0" /><path
             d="M 104,556 H 398.63"
             style="fill:none;stroke:#000000;stroke-width:1;stroke-linecap:butt;stroke-linejoin:miter;stroke-miterlimit:10;stroke-dasharray:none;stroke-opacity:1"
             id="path7209"
             inkscape:connector-curvature="0" /><path
             d="m 403.88,556 -7,3.5 1.75,-3.5 -1.75,-3.5 z"
             style="fill:#000000;fill-opacity:1;fill-rule:nonzero;stroke:none"
             id="path7211"
             inkscape:connector-curvature="0" /><path
             d="m 403.88,556 -7,3.5 1.75,-3.5 -1.75,-3.5 z"
             style="fill:none;stroke:#000000;stroke-width:1;stroke-linecap:butt;stroke-linejoin:miter;stroke-miterlimit:10;stroke-dasharray:none;stroke-opacity:1"
             id="path7213"
             inkscape:connector-curvature="0" /><path
             d="M 249,307 H 399.13"
             style="fill:none;stroke:#000000;stroke-width:1;stroke-linecap:butt;stroke-linejoin:miter;stroke-miterlimit:10;stroke-dasharray:none;stroke-opacity:1"
             id="path7215"
             inkscape:connector-curvature="0" /><path
             d="m 404.38,307 -7,3.5 1.75,-3.5 -1.75,-3.5 z"
             style="fill:#000000;fill-opacity:1;fill-rule:nonzero;stroke:none"
             id="path7217"
             inkscape:connector-curvature="0" /><path
             d="m 404.38,307 -7,3.5 1.75,-3.5 -1.75,-3.5 z"
             style="fill:none;stroke:#000000;stroke-width:1;stroke-linecap:butt;stroke-linejoin:miter;stroke-miterlimit:10;stroke-dasharray:none;stroke-opacity:1"
             id="path7219"
             inkscape:connector-curvature="0" /><path
             d="M 256,41 V 21 h 295 v 20"
             style="fill:#ffffff;fill-opacity:1;fill-rule:nonzero;stroke:none"
             id="path7221"
             inkscape:connector-curvature="0" /><path
             d="M 256,41 V 21 h 295 v 20"
             style="fill:none;stroke:#000000;stroke-width:1;stroke-linecap:butt;stroke-linejoin:miter;stroke-miterlimit:10;stroke-dasharray:none;stroke-opacity:1"
             id="path7223"
             inkscape:connector-curvature="0" /><path
             d="M 256,41 V 671 H 551 V 41"
             style="fill:none;stroke:#000000;stroke-width:1;stroke-linecap:butt;stroke-linejoin:miter;stroke-miterlimit:10;stroke-dasharray:none;stroke-opacity:1"
             id="path7225"
             inkscape:connector-curvature="0" /><path
             d="M 256,41 H 551"
             style="fill:none;stroke:#000000;stroke-width:1;stroke-linecap:butt;stroke-linejoin:miter;stroke-miterlimit:10;stroke-dasharray:none;stroke-opacity:1"
             id="path7227"
             inkscape:connector-curvature="0" /></g><g
           id="g7229"
           transform="matrix(2.9891303,0,0,2.9891303,1126.9021,77.717384)"><text
             transform="translate(0,11)"
             style="font-variant:normal;font-weight:bold;font-size:12px;font-family:Helvetica;-inkscape-font-specification:Helvetica-Bold;writing-mode:lr-tb;fill:#000000;fill-opacity:1;fill-rule:nonzero;stroke:none"
             id="text7233"><tspan
               x="0 8.6660156 15.996094 20.666016 27.996094 31.330078 40.664062 49.330078"
               y="0"
               sodipodi:role="line"
               id="tspan7231">Borg GUI</tspan></text>
</g><g
           id="g7235"
           transform="matrix(2.9891303,0,0,2.9891303,1.4945651,1.4945651)"><path
             d="m 339,156 h 70 c 0.98489,0 1.96036,0.0961 2.92633,0.28821 0.96594,0.19215 1.9039,0.47667 2.81384,0.85357 0.90995,0.37693 1.77436,0.83898 2.5933,1.38616 0.81893,0.54719 1.57663,1.169 2.27307,1.86545 0.69644,0.69644 1.31826,1.45411 1.86544,2.27304 0.54719,0.81892 1.00922,1.68336 1.38614,2.5933 0.37693,0.90995 0.66144,1.84792 0.85361,2.81391 0.19217,0.96599 0.28824,1.94145 0.28827,2.92636 -3e-5,0.98491 -0.0961,1.96036 -0.28827,2.92635 -0.19217,0.96597 -0.47668,1.90393 -0.85361,2.81387 -0.37692,0.90994 -0.83895,1.77437 -1.38614,2.59329 -0.54718,0.81894 -1.169,1.57663 -1.86544,2.27307 -0.69644,0.69644 -1.45414,1.31826 -2.27304,1.86544 -0.81894,0.54719 -1.68338,1.00924 -2.59333,1.38615 -0.90994,0.37692 -1.8479,0.66145 -2.81387,0.85359 C 410.96033,185.90392 409.98489,186 409,186 h -70 c -0.98492,0 -1.96039,-0.0961 -2.92639,-0.28824 -0.96597,-0.19214 -1.90393,-0.47667 -2.81387,-0.85359 -0.90995,-0.37691 -1.77442,-0.83896 -2.59336,-1.38615 -0.81891,-0.54718 -1.57657,-1.169 -2.27301,-1.86544 -0.69644,-0.69644 -1.31827,-1.45413 -1.86548,-2.27305 -0.54718,-0.81893 -1.00921,-1.68337 -1.38614,-2.59331 -0.37692,-0.90994 -0.66143,-1.8479 -0.85357,-2.81389 C 324.09607,172.96034 324,171.98491 324,171 c 0,-0.98491 0.0961,-1.96037 0.28818,-2.92636 0.19214,-0.96599 0.47665,-1.90396 0.85357,-2.81391 0.37693,-0.90994 0.83896,-1.77438 1.38617,-2.5933 0.54718,-0.81893 1.16901,-1.5766 1.86545,-2.27304 0.69644,-0.69645 1.4541,-1.31826 2.27304,-1.86545 0.81894,-0.54718 1.68338,-1.00923 2.59333,-1.38616 0.90994,-0.3769 1.8479,-0.66142 2.81387,-0.85357 C 337.03961,156.09607 338.01508,156 339,156 Z"
             style="fill:#ffffff;fill-opacity:1;fill-rule:nonzero;stroke:none"
             id="path7237"
             inkscape:connector-curvature="0" /><path
             d="m 339,156 h 70 c 0.98489,0 1.96036,0.0961 2.92633,0.28821 0.96594,0.19215 1.9039,0.47667 2.81384,0.85357 0.90995,0.37693 1.77436,0.83898 2.5933,1.38616 0.81893,0.54719 1.57663,1.169 2.27307,1.86545 0.69644,0.69644 1.31826,1.45411 1.86544,2.27304 0.54719,0.81892 1.00922,1.68336 1.38614,2.5933 0.37693,0.90995 0.66144,1.84792 0.85361,2.81391 0.19217,0.96599 0.28824,1.94145 0.28827,2.92636 -3e-5,0.98491 -0.0961,1.96036 -0.28827,2.92635 -0.19217,0.96597 -0.47668,1.90393 -0.85361,2.81387 -0.37692,0.90994 -0.83895,1.77437 -1.38614,2.59329 -0.54718,0.81894 -1.169,1.57663 -1.86544,2.27307 -0.69644,0.69644 -1.45414,1.31826 -2.27304,1.86544 -0.81894,0.54719 -1.68338,1.00924 -2.59333,1.38615 -0.90994,0.37692 -1.8479,0.66145 -2.81387,0.85359 C 410.96033,185.90392 409.98489,186 409,186 h -70 c -0.98492,0 -1.96039,-0.0961 -2.92639,-0.28824 -0.96597,-0.19214 -1.90393,-0.47667 -2.81387,-0.85359 -0.90995,-0.37691 -1.77442,-0.83896 -2.59336,-1.38615 -0.81891,-0.54718 -1.57657,-1.169 -2.27301,-1.86544 -0.69644,-0.69644 -1.31827,-1.45413 -1.86548,-2.27305 -0.54718,-0.81893 -1.00921,-1.68337 -1.38614,-2.59331 -0.37692,-0.90994 -0.66143,-1.8479 -0.85357,-2.81389 C 324.09607,172.96034 324,171.98491 324,171 c 0,-0.98491 0.0961,-1.96037 0.28818,-2.92636 0.19214,-0.96599 0.47665,-1.90396 0.85357,-2.81391 0.37693,-0.90994 0.83896,-1.77438 1.38617,-2.5933 0.54718,-0.81893 1.16901,-1.5766 1.86545,-2.27304 0.69644,-0.69645 1.4541,-1.31826 2.27304,-1.86545 0.81894,-0.54718 1.68338,-1.00923 2.59333,-1.38616 0.90994,-0.3769 1.8479,-0.66142 2.81387,-0.85357 C 337.03961,156.09607 338.01508,156 339,156 Z"
             style="fill:none;stroke:#000000;stroke-width:1;stroke-linecap:butt;stroke-linejoin:miter;stroke-miterlimit:10;stroke-dasharray:none;stroke-opacity:1"
             id="path7239"
             inkscape:connector-curvature="0" /></g><g
           id="g7241"
           transform="matrix(2.9891303,0,0,2.9891303,974.45648,472.28259)"><text
             transform="translate(17.78125,11)"
             style="font-variant:normal;font-weight:normal;font-size:12px;font-family:Verdana;-inkscape-font-specification:Verdana;writing-mode:lr-tb;fill:#000000;fill-opacity:1;fill-rule:nonzero;stroke:none"
             id="text7245"><tspan
               x="0 5.5078125 13.710938 20.859375 25.587891 30.316406 33.609375 41.203125 48.679688 54.931641"
               y="0"
               sodipodi:role="line"
               id="tspan7243">&quot;Settings&quot;</tspan></text>
<text
             transform="translate(0.109375,25)"
             style="font-variant:normal;font-weight:normal;font-size:12px;font-family:Verdana;-inkscape-font-specification:Verdana;writing-mode:lr-tb;fill:#000000;fill-opacity:1;fill-rule:nonzero;stroke:none"
             id="text7249"><tspan
               x="0 9.2460938 12.539062 19.746094 23.039062 30.322266 37.798828 42.017578 49.224609 56.818359 63.123047 70.271484 73.564453 81.041016 88.189453"
               y="0"
               sodipodi:role="line"
               id="tspan7247">Dialog anzeigen</tspan></text>
</g><g
           id="g7251"
           transform="matrix(2.9891303,0,0,2.9891303,1.4945651,1.4945651)"><path
             d="m 455,581 v 23.63"
             style="fill:none;stroke:#000000;stroke-width:1;stroke-linecap:butt;stroke-linejoin:miter;stroke-miterlimit:10;stroke-dasharray:none;stroke-opacity:1"
             id="path7253"
             inkscape:connector-curvature="0" /><path
             d="m 455,609.88 -3.5,-7 3.5,1.75 3.5,-1.75 z"
             style="fill:#000000;fill-opacity:1;fill-rule:nonzero;stroke:none"
             id="path7255"
             inkscape:connector-curvature="0" /><path
             d="m 455,609.88 -3.5,-7 3.5,1.75 3.5,-1.75 z"
             style="fill:none;stroke:#000000;stroke-width:1;stroke-linecap:butt;stroke-linejoin:miter;stroke-miterlimit:10;stroke-dasharray:none;stroke-opacity:1"
             id="path7257"
             inkscape:connector-curvature="0" /><path
             d="m 430,531 h 50 c 0.81882,6e-5 1.63562,0.0402 2.45044,0.12048 0.81485,0.0803 1.62378,0.2002 2.42679,0.35993 0.80307,0.15973 1.59637,0.35846 2.37985,0.59607 0.78354,0.23767 1.55353,0.51318 2.30997,0.82647 0.75647,0.31336 1.49576,0.66303 2.21786,1.04902 0.72211,0.38592 1.42356,0.80633 2.10431,1.26123 0.68082,0.45489 1.33768,0.94201 1.97058,1.46148 0.63294,0.51941 1.23889,1.06861 1.81784,1.64759 0.57898,0.57898 1.12821,1.18493 1.64765,1.81781 0.51941,0.63299 1.00653,1.28985 1.46139,1.97064 0.45493,0.68078 0.87537,1.3822 1.26132,2.10431 0.38596,0.7221 0.7356,1.46136 1.04892,2.21783 0.31333,0.75641 0.58884,1.52643 0.82651,2.31 0.2377,0.78351 0.4364,1.57678 0.59613,2.37982 0.15976,0.80304 0.27979,1.612 0.36008,2.42688 C 504.95987,554.36444 505,555.18127 505,556 c 0,0.81879 -0.0401,1.63562 -0.12039,2.45044 -0.0803,0.81488 -0.20029,1.62378 -0.36005,2.42676 -0.15973,0.8031 -0.35843,1.59637 -0.5961,2.37988 -0.2377,0.78351 -0.51321,1.55353 -0.82654,2.30994 -0.31332,0.75647 -0.66296,1.49579 -1.04892,2.21789 -0.38595,0.72211 -0.80639,1.42353 -1.26132,2.10425 -0.45486,0.68085 -0.94198,1.33771 -1.46142,1.97064 -0.51944,0.63294 -1.06864,1.23889 -1.64762,1.81781 -0.57895,0.57904 -1.1849,1.12824 -1.81781,1.64765 -0.63293,0.51941 -1.28979,1.00653 -1.97061,1.46142 -0.68075,0.4549 -1.3822,0.87531 -2.10431,1.26129 -0.7221,0.38599 -1.46139,0.73566 -2.21786,1.04895 -0.75644,0.31336 -1.52643,0.58887 -2.30997,0.8266 -0.78348,0.23761 -1.57678,0.43628 -2.37985,0.59601 -0.80301,0.15979 -1.61194,0.27979 -2.42679,0.36005 C 481.63562,580.95984 480.81882,581 480,581 h -50 c -0.81876,0 -1.63556,-0.0402 -2.45041,-0.12042 -0.81485,-0.0803 -1.62384,-0.20026 -2.42691,-0.36005 -0.80304,-0.15973 -1.59631,-0.3584 -2.37982,-0.59601 -0.78354,-0.23773 -1.55353,-0.51324 -2.31003,-0.8266 -0.75644,-0.31329 -1.4957,-0.66296 -2.21783,-1.04895 -0.72208,-0.38598 -1.42353,-0.80639 -2.10434,-1.26129 -0.68076,-0.45489 -1.33762,-0.94201 -1.97052,-1.46142 -0.63291,-0.51941 -1.23886,-1.06861 -1.81784,-1.64765 -0.57895,-0.57892 -1.12815,-1.18487 -1.64759,-1.81781 -0.51941,-0.63293 -1.00656,-1.28979 -1.46148,-1.97064 -0.45487,-0.68072 -0.87531,-1.38214 -1.26126,-2.10425 -0.38599,-0.7221 -0.73566,-1.46142 -1.04902,-2.21789 -0.31332,-0.75641 -0.5888,-1.52643 -0.82644,-2.30994 -0.2377,-0.78351 -0.43643,-1.57678 -0.59616,-2.37988 -0.1597,-0.80298 -0.2797,-1.61188 -0.35999,-2.42676 C 405.04013,557.63562 405.00003,556.81879 405,556 c 3e-5,-0.81873 0.0402,-1.63556 0.12039,-2.45044 0.0803,-0.81488 0.20026,-1.62384 0.35996,-2.42688 0.15973,-0.80304 0.35846,-1.59631 0.59616,-2.37982 0.23764,-0.78357 0.51312,-1.55359 0.82644,-2.31 0.31336,-0.75647 0.66303,-1.49573 1.04902,-2.21783 0.38595,-0.72211 0.80636,-1.42353 1.26123,-2.10431 0.45492,-0.68079 0.94207,-1.33765 1.46148,-1.97064 0.51944,-0.63288 1.06867,-1.23883 1.64762,-1.81781 0.57898,-0.57898 1.18493,-1.12818 1.81787,-1.64759 0.6329,-0.51947 1.28976,-1.00659 1.97052,-1.46148 0.68081,-0.4549 1.38226,-0.87531 2.10437,-1.26123 0.7221,-0.38599 1.46136,-0.73566 2.2178,-1.04902 0.75647,-0.31329 1.52646,-0.5888 2.31,-0.82647 0.78351,-0.23761 1.57678,-0.43634 2.37982,-0.59607 0.80307,-0.15973 1.61203,-0.27967 2.42688,-0.35993 0.81485,-0.0803 1.63168,-0.12042 2.45044,-0.12048 z"
             style="fill:#ffffff;fill-opacity:1;fill-rule:nonzero;stroke:none"
             id="path7259"
             inkscape:connector-curvature="0" /><path
             d="m 430,531 h 50 c 0.81882,6e-5 1.63562,0.0402 2.45044,0.12048 0.81485,0.0803 1.62378,0.2002 2.42679,0.35993 0.80307,0.15973 1.59637,0.35846 2.37985,0.59607 0.78354,0.23767 1.55353,0.51318 2.30997,0.82647 0.75647,0.31336 1.49576,0.66303 2.21786,1.04902 0.72211,0.38592 1.42356,0.80633 2.10431,1.26123 0.68082,0.45489 1.33768,0.94201 1.97058,1.46148 0.63294,0.51941 1.23889,1.06861 1.81784,1.64759 0.57898,0.57898 1.12821,1.18493 1.64765,1.81781 0.51941,0.63299 1.00653,1.28985 1.46139,1.97064 0.45493,0.68078 0.87537,1.3822 1.26132,2.10431 0.38596,0.7221 0.7356,1.46136 1.04892,2.21783 0.31333,0.75641 0.58884,1.52643 0.82651,2.31 0.2377,0.78351 0.4364,1.57678 0.59613,2.37982 0.15976,0.80304 0.27979,1.612 0.36008,2.42688 C 504.95987,554.36444 505,555.18127 505,556 c 0,0.81879 -0.0401,1.63562 -0.12039,2.45044 -0.0803,0.81488 -0.20029,1.62378 -0.36005,2.42676 -0.15973,0.8031 -0.35843,1.59637 -0.5961,2.37988 -0.2377,0.78351 -0.51321,1.55353 -0.82654,2.30994 -0.31332,0.75647 -0.66296,1.49579 -1.04892,2.21789 -0.38595,0.72211 -0.80639,1.42353 -1.26132,2.10425 -0.45486,0.68085 -0.94198,1.33771 -1.46142,1.97064 -0.51944,0.63294 -1.06864,1.23889 -1.64762,1.81781 -0.57895,0.57904 -1.1849,1.12824 -1.81781,1.64765 -0.63293,0.51941 -1.28979,1.00653 -1.97061,1.46142 -0.68075,0.4549 -1.3822,0.87531 -2.10431,1.26129 -0.7221,0.38599 -1.46139,0.73566 -2.21786,1.04895 -0.75644,0.31336 -1.52643,0.58887 -2.30997,0.8266 -0.78348,0.23761 -1.57678,0.43628 -2.37985,0.59601 -0.80301,0.15979 -1.61194,0.27979 -2.42679,0.36005 C 481.63562,580.95984 480.81882,581 480,581 h -50 c -0.81876,0 -1.63556,-0.0402 -2.45041,-0.12042 -0.81485,-0.0803 -1.62384,-0.20026 -2.42691,-0.36005 -0.80304,-0.15973 -1.59631,-0.3584 -2.37982,-0.59601 -0.78354,-0.23773 -1.55353,-0.51324 -2.31003,-0.8266 -0.75644,-0.31329 -1.4957,-0.66296 -2.21783,-1.04895 -0.72208,-0.38598 -1.42353,-0.80639 -2.10434,-1.26129 -0.68076,-0.45489 -1.33762,-0.94201 -1.97052,-1.46142 -0.63291,-0.51941 -1.23886,-1.06861 -1.81784,-1.64765 -0.57895,-0.57892 -1.12815,-1.18487 -1.64759,-1.81781 -0.51941,-0.63293 -1.00656,-1.28979 -1.46148,-1.97064 -0.45487,-0.68072 -0.87531,-1.38214 -1.26126,-2.10425 -0.38599,-0.7221 -0.73566,-1.46142 -1.04902,-2.21789 -0.31332,-0.75641 -0.5888,-1.52643 -0.82644,-2.30994 -0.2377,-0.78351 -0.43643,-1.57678 -0.59616,-2.37988 -0.1597,-0.80298 -0.2797,-1.61188 -0.35999,-2.42676 C 405.04013,557.63562 405.00003,556.81879 405,556 c 3e-5,-0.81873 0.0402,-1.63556 0.12039,-2.45044 0.0803,-0.81488 0.20026,-1.62384 0.35996,-2.42688 0.15973,-0.80304 0.35846,-1.59631 0.59616,-2.37982 0.23764,-0.78357 0.51312,-1.55359 0.82644,-2.31 0.31336,-0.75647 0.66303,-1.49573 1.04902,-2.21783 0.38595,-0.72211 0.80636,-1.42353 1.26123,-2.10431 0.45492,-0.68079 0.94207,-1.33765 1.46148,-1.97064 0.51944,-0.63288 1.06867,-1.23883 1.64762,-1.81781 0.57898,-0.57898 1.18493,-1.12818 1.81787,-1.64759 0.6329,-0.51947 1.28976,-1.00659 1.97052,-1.46148 0.68081,-0.4549 1.38226,-0.87531 2.10437,-1.26123 0.7221,-0.38599 1.46136,-0.73566 2.2178,-1.04902 0.75647,-0.31329 1.52646,-0.5888 2.31,-0.82647 0.78351,-0.23761 1.57678,-0.43634 2.37982,-0.59607 0.80307,-0.15973 1.61203,-0.27967 2.42688,-0.35993 0.81485,-0.0803 1.63168,-0.12042 2.45044,-0.12048 z"
             style="fill:none;stroke:#000000;stroke-width:1;stroke-linecap:butt;stroke-linejoin:miter;stroke-miterlimit:10;stroke-dasharray:none;stroke-opacity:1"
             id="path7261"
             inkscape:connector-curvature="0" /></g><g
           id="g7263"
           transform="matrix(2.9891303,0,0,2.9891303,1216.5761,1602.1738)"><text
             transform="translate(17.78125,11)"
             style="font-variant:normal;font-weight:normal;font-size:12px;font-family:Verdana;-inkscape-font-specification:Verdana;writing-mode:lr-tb;fill:#000000;fill-opacity:1;fill-rule:nonzero;stroke:none"
             id="text7267"><tspan
               x="0 5.5078125 13.710938 20.859375 25.587891 30.316406 33.609375 41.203125 48.679688 54.931641"
               y="0"
               sodipodi:role="line"
               id="tspan7265">&quot;Settings&quot;</tspan></text>
<text
             transform="translate(29.09375,25)"
             style="font-variant:normal;font-weight:normal;font-size:12px;font-family:Verdana;-inkscape-font-specification:Verdana;writing-mode:lr-tb;fill:#000000;fill-opacity:1;fill-rule:nonzero;stroke:none"
             id="text7271"><tspan
               x="0 9.2460938 12.539062 19.746094 23.039062 30.322266"
               y="0"
               sodipodi:role="line"
               id="tspan7269">Dialog</tspan></text>
<text
             transform="translate(17.453125,39)"
             style="font-variant:normal;font-weight:normal;font-size:12px;font-family:Verdana;-inkscape-font-specification:Verdana;writing-mode:lr-tb;fill:#000000;fill-opacity:1;fill-rule:nonzero;stroke:none"
             id="text7275"><tspan
               x="0 6.2519531 12.503906 20.097656 23.390625 26.683594 33.832031 40.083984 46.335938 53.484375"
               y="0"
               sodipodi:role="line"
               id="tspan7273">schliessen</tspan></text>
</g><g
           id="g7277"
           transform="matrix(2.9891303,0,0,2.9891303,1.4945651,1.4945651)"><path
             d="m 475,631 c -3e-5,1.31317 -0.12814,2.61377 -0.38434,3.90173 -0.25619,1.28797 -0.63559,2.53858 -1.13812,3.75183 -0.50256,1.21326 -1.11865,2.36585 -1.84824,3.45777 -0.72955,1.09186 -1.55862,2.10211 -2.48718,3.03076 -0.92859,0.92859 -1.93884,1.75769 -3.03073,2.48724 -1.09192,0.72956 -2.24451,1.34565 -3.45776,1.84821 -1.21326,0.50256 -2.4639,0.88196 -3.7519,1.13812 C 457.61377,650.87189 456.3132,651 455,651 c -1.31323,0 -2.61383,-0.12811 -3.90182,-0.38434 -1.288,-0.25616 -2.53861,-0.63556 -3.7519,-1.13812 -1.21325,-0.50256 -2.36584,-1.11865 -3.45776,-1.84821 -1.09189,-0.72955 -2.10214,-1.55865 -3.0307,-2.48724 -0.92862,-0.92865 -1.75769,-1.9389 -2.48728,-3.03076 -0.72961,-1.09192 -1.34567,-2.24451 -1.8482,-3.45777 -0.50253,-1.21325 -0.8819,-2.46386 -1.13809,-3.75183 C 435.12805,633.61377 434.99997,632.31317 435,631 c -3e-5,-1.31323 0.12805,-2.61383 0.38425,-3.90186 0.25619,-1.28796 0.63556,-2.53857 1.13809,-3.75183 0.50253,-1.21331 1.11859,-2.3659 1.8482,-3.45776 0.72959,-1.09192 1.55866,-2.10217 2.48728,-3.0307 0.92856,-0.92859 1.93881,-1.75769 3.03073,-2.48724 1.09189,-0.72962 2.24448,-1.34571 3.45773,-1.84827 1.21329,-0.5025 2.4639,-0.8819 3.7519,-1.13806 C 452.38617,611.12811 453.68677,611 455,611 c 1.3132,0 2.61377,0.12811 3.90173,0.38428 1.288,0.25616 2.53861,0.63556 3.75186,1.13806 1.21326,0.50256 2.36585,1.11865 3.45777,1.8482 1.09192,0.72962 2.10217,1.55872 3.03076,2.48731 0.92856,0.92853 1.75763,1.93878 2.48721,3.03076 0.72959,1.09186 1.34565,2.24439 1.84821,3.4577 0.50253,1.21326 0.88193,2.46387 1.13812,3.75183 0.2562,1.28803 0.38431,2.58863 0.38434,3.90186 z"
             style="fill:#ffffff;fill-opacity:1;fill-rule:nonzero;stroke:none"
             id="path7279"
             inkscape:connector-curvature="0" /><path
             d="m 475,631 c -3e-5,1.31317 -0.12814,2.61377 -0.38434,3.90173 -0.25619,1.28797 -0.63559,2.53858 -1.13812,3.75183 -0.50256,1.21326 -1.11865,2.36585 -1.84824,3.45777 -0.72955,1.09186 -1.55862,2.10211 -2.48718,3.03076 -0.92859,0.92859 -1.93884,1.75769 -3.03073,2.48724 -1.09192,0.72956 -2.24451,1.34565 -3.45776,1.84821 -1.21326,0.50256 -2.4639,0.88196 -3.7519,1.13812 C 457.61377,650.87189 456.3132,651 455,651 c -1.31323,0 -2.61383,-0.12811 -3.90182,-0.38434 -1.288,-0.25616 -2.53861,-0.63556 -3.7519,-1.13812 -1.21325,-0.50256 -2.36584,-1.11865 -3.45776,-1.84821 -1.09189,-0.72955 -2.10214,-1.55865 -3.0307,-2.48724 -0.92862,-0.92865 -1.75769,-1.9389 -2.48728,-3.03076 -0.72961,-1.09192 -1.34567,-2.24451 -1.8482,-3.45777 -0.50253,-1.21325 -0.8819,-2.46386 -1.13809,-3.75183 C 435.12805,633.61377 434.99997,632.31317 435,631 c -3e-5,-1.31323 0.12805,-2.61383 0.38425,-3.90186 0.25619,-1.28796 0.63556,-2.53857 1.13809,-3.75183 0.50253,-1.21331 1.11859,-2.3659 1.8482,-3.45776 0.72959,-1.09192 1.55866,-2.10217 2.48728,-3.0307 0.92856,-0.92859 1.93881,-1.75769 3.03073,-2.48724 1.09189,-0.72962 2.24448,-1.34571 3.45773,-1.84827 1.21329,-0.5025 2.4639,-0.8819 3.7519,-1.13806 C 452.38617,611.12811 453.68677,611 455,611 c 1.3132,0 2.61377,0.12811 3.90173,0.38428 1.288,0.25616 2.53861,0.63556 3.75186,1.13806 1.21326,0.50256 2.36585,1.11865 3.45777,1.8482 1.09192,0.72962 2.10217,1.55872 3.03076,2.48731 0.92856,0.92853 1.75763,1.93878 2.48721,3.03076 0.72959,1.09186 1.34565,2.24439 1.84821,3.4577 0.50253,1.21326 0.88193,2.46387 1.13812,3.75183 0.2562,1.28803 0.38431,2.58863 0.38434,3.90186 z"
             style="fill:none;stroke:#000000;stroke-width:1;stroke-linecap:butt;stroke-linejoin:miter;stroke-miterlimit:10;stroke-dasharray:none;stroke-opacity:1"
             id="path7281"
             inkscape:connector-curvature="0" /><path
             d="m 473,631 c -3e-5,1.18188 -0.11533,2.35242 -0.34592,3.51154 -0.23059,1.15924 -0.57202,2.28479 -1.02432,3.3767 -0.45227,1.09192 -1.00671,2.12928 -1.66336,3.112 -0.65662,0.98273 -1.4028,1.89191 -2.23853,2.72767 -0.83575,0.83569 -1.74499,1.58184 -2.72769,2.23846 -0.98269,0.65662 -2.02002,1.21106 -3.11194,1.66339 -1.09194,0.45233 -2.21749,0.79376 -3.37664,1.02429 C 457.35242,648.8847 456.18188,649 455,649 c -1.18192,0 -2.35248,-0.1153 -3.51169,-0.34595 -1.15921,-0.23053 -2.28479,-0.57196 -3.37671,-1.02429 -1.09192,-0.45233 -2.12921,-1.00677 -3.11191,-1.66339 -0.98269,-0.65662 -1.89193,-1.40277 -2.72766,-2.23846 -0.83575,-0.83576 -1.58194,-1.74494 -2.23858,-2.72767 -0.65662,-0.98272 -1.21106,-2.02008 -1.66336,-3.112 -0.45227,-1.09191 -0.7937,-2.21746 -1.02426,-3.3767 C 437.11526,633.35242 436.99997,632.18188 437,631 c -3e-5,-1.18195 0.11526,-2.35248 0.34583,-3.51166 0.23056,-1.15924 0.57199,-2.28479 1.02426,-3.37671 0.4523,-1.09192 1.00674,-2.12927 1.66336,-3.112 0.65664,-0.98272 1.40283,-1.8919 2.23858,-2.7276 0.83573,-0.83569 1.74497,-1.58184 2.72766,-2.23852 0.9827,-0.65662 2.02002,-1.21106 3.11194,-1.66339 1.09192,-0.45227 2.21747,-0.7937 3.37668,-1.02423 C 452.64752,613.1153 453.81808,613 455,613 c 1.18188,0 2.35242,0.1153 3.5116,0.34589 1.15915,0.23053 2.2847,0.57196 3.37664,1.02423 1.09192,0.45233 2.12925,1.00677 3.11197,1.66339 0.9827,0.65668 1.89191,1.40283 2.72766,2.23852 0.83573,0.8357 1.58191,1.74488 2.23853,2.7276 0.65665,0.98273 1.21109,2.02008 1.66336,3.112 0.4523,1.09192 0.79373,2.21747 1.02432,3.37671 0.23059,1.15918 0.34589,2.32971 0.34592,3.51166 z"
             style="fill:#000000;fill-opacity:1;fill-rule:nonzero;stroke:none"
             id="path7283"
             inkscape:connector-curvature="0" /><path
             d="m 473,631 c -3e-5,1.18188 -0.11533,2.35242 -0.34592,3.51154 -0.23059,1.15924 -0.57202,2.28479 -1.02432,3.3767 -0.45227,1.09192 -1.00671,2.12928 -1.66336,3.112 -0.65662,0.98273 -1.4028,1.89191 -2.23853,2.72767 -0.83575,0.83569 -1.74499,1.58184 -2.72769,2.23846 -0.98269,0.65662 -2.02002,1.21106 -3.11194,1.66339 -1.09194,0.45233 -2.21749,0.79376 -3.37664,1.02429 C 457.35242,648.8847 456.18188,649 455,649 c -1.18192,0 -2.35248,-0.1153 -3.51169,-0.34595 -1.15921,-0.23053 -2.28479,-0.57196 -3.37671,-1.02429 -1.09192,-0.45233 -2.12921,-1.00677 -3.11191,-1.66339 -0.98269,-0.65662 -1.89193,-1.40277 -2.72766,-2.23846 -0.83575,-0.83576 -1.58194,-1.74494 -2.23858,-2.72767 -0.65662,-0.98272 -1.21106,-2.02008 -1.66336,-3.112 -0.45227,-1.09191 -0.7937,-2.21746 -1.02426,-3.3767 C 437.11526,633.35242 436.99997,632.18188 437,631 c -3e-5,-1.18195 0.11526,-2.35248 0.34583,-3.51166 0.23056,-1.15924 0.57199,-2.28479 1.02426,-3.37671 0.4523,-1.09192 1.00674,-2.12927 1.66336,-3.112 0.65664,-0.98272 1.40283,-1.8919 2.23858,-2.7276 0.83573,-0.83569 1.74497,-1.58184 2.72766,-2.23852 0.9827,-0.65662 2.02002,-1.21106 3.11194,-1.66339 1.09192,-0.45227 2.21747,-0.7937 3.37668,-1.02423 C 452.64752,613.1153 453.81808,613 455,613 c 1.18188,0 2.35242,0.1153 3.5116,0.34589 1.15915,0.23053 2.2847,0.57196 3.37664,1.02423 1.09192,0.45233 2.12925,1.00677 3.11197,1.66339 0.9827,0.65668 1.89191,1.40283 2.72766,2.23852 0.83573,0.8357 1.58191,1.74488 2.23853,2.7276 0.65665,0.98273 1.21109,2.02008 1.66336,3.112 0.4523,1.09192 0.79373,2.21747 1.02432,3.37671 0.23059,1.15918 0.34589,2.32971 0.34592,3.51166 z"
             style="fill:none;stroke:#ffffff;stroke-width:1;stroke-linecap:butt;stroke-linejoin:miter;stroke-miterlimit:10;stroke-dasharray:none;stroke-opacity:1"
             id="path7285"
             inkscape:connector-curvature="0" /><path
             d="m 456,329 v 20 -10 13.63"
             style="fill:none;stroke:#000000;stroke-width:1;stroke-linecap:butt;stroke-linejoin:miter;stroke-miterlimit:10;stroke-dasharray:none;stroke-opacity:1"
             id="path7287"
             inkscape:connector-curvature="0" /><path
             d="m 456,357.88 -3.5,-7 3.5,1.75 3.5,-1.75 z"
             style="fill:#000000;fill-opacity:1;fill-rule:nonzero;stroke:none"
             id="path7289"
             inkscape:connector-curvature="0" /><path
             d="m 456,357.88 -3.5,-7 3.5,1.75 3.5,-1.75 z"
             style="fill:none;stroke:#000000;stroke-width:1;stroke-linecap:butt;stroke-linejoin:miter;stroke-miterlimit:10;stroke-dasharray:none;stroke-opacity:1"
             id="path7291"
             inkscape:connector-curvature="0" /><path
             d="m 427.5,285 h 56 c 1.44449,0 2.87512,0.1409 4.2919,0.4227 1.41678,0.28183 2.79248,0.69913 4.12708,1.25192 1.33459,0.5528 2.60241,1.23047 3.80349,2.03302 1.20111,0.80252 2.31241,1.71454 3.33387,2.73599 1.02145,1.02146 1.93344,2.13272 2.73596,3.33381 0.80252,1.20108 1.48019,2.46893 2.03302,3.80349 0.55282,1.33457 0.97012,2.71027 1.25192,4.12708 0.28183,1.41678 0.42276,2.84744 0.42276,4.29199 0,1.44455 -0.1409,2.87518 -0.42273,4.29196 -0.28183,1.41678 -0.69913,2.79245 -1.25195,4.12705 -0.55283,1.33456 -1.23047,2.60241 -2.03299,3.80352 -0.80255,1.20108 -1.71454,2.31235 -2.73599,3.33381 -1.02146,1.02142 -2.13276,1.93341 -3.33387,2.73596 -1.20108,0.80252 -2.4689,1.48019 -3.80349,2.03299 -1.3346,0.55282 -2.71027,0.97012 -4.12705,1.25195 C 486.37515,328.85907 484.94449,329 483.5,329 h -56 c -1.44455,0 -2.87524,-0.14093 -4.29202,-0.42276 -1.41681,-0.28183 -2.79251,-0.69913 -4.12708,-1.25195 -1.33456,-0.5528 -2.60241,-1.23047 -3.8035,-2.03299 -1.20108,-0.80255 -2.31231,-1.71454 -3.33377,-2.73596 -1.02145,-1.02146 -1.93347,-2.13273 -2.73599,-3.33381 -0.80255,-1.20111 -1.48022,-2.46896 -2.03302,-3.80352 -0.55279,-1.3346 -0.97009,-2.71027 -1.25192,-4.12705 -0.28183,-1.41678 -0.42273,-2.84741 -0.4227,-4.29196 -3e-5,-1.44455 0.14087,-2.87521 0.42267,-4.29199 0.28183,-1.41681 0.69916,-2.79251 1.25195,-4.12708 0.5528,-1.33456 1.23047,-2.60241 2.03299,-3.80349 0.80255,-1.20109 1.71457,-2.31235 2.73602,-3.33381 1.02146,-1.02145 2.13272,-1.93347 3.33381,-2.73602 1.20108,-0.80252 2.4689,-1.48019 3.80349,-2.03299 1.33457,-0.55279 2.71024,-0.97009 4.12708,-1.25192 C 424.62479,285.1409 426.05545,285 427.5,285 Z"
             style="fill:#ffffff;fill-opacity:1;fill-rule:nonzero;stroke:none"
             id="path7293"
             inkscape:connector-curvature="0" /><path
             d="m 427.5,285 h 56 c 1.44449,0 2.87512,0.1409 4.2919,0.4227 1.41678,0.28183 2.79248,0.69913 4.12708,1.25192 1.33459,0.5528 2.60241,1.23047 3.80349,2.03302 1.20111,0.80252 2.31241,1.71454 3.33387,2.73599 1.02145,1.02146 1.93344,2.13272 2.73596,3.33381 0.80252,1.20108 1.48019,2.46893 2.03302,3.80349 0.55282,1.33457 0.97012,2.71027 1.25192,4.12708 0.28183,1.41678 0.42276,2.84744 0.42276,4.29199 0,1.44455 -0.1409,2.87518 -0.42273,4.29196 -0.28183,1.41678 -0.69913,2.79245 -1.25195,4.12705 -0.55283,1.33456 -1.23047,2.60241 -2.03299,3.80352 -0.80255,1.20108 -1.71454,2.31235 -2.73599,3.33381 -1.02146,1.02142 -2.13276,1.93341 -3.33387,2.73596 -1.20108,0.80252 -2.4689,1.48019 -3.80349,2.03299 -1.3346,0.55282 -2.71027,0.97012 -4.12705,1.25195 C 486.37515,328.85907 484.94449,329 483.5,329 h -56 c -1.44455,0 -2.87524,-0.14093 -4.29202,-0.42276 -1.41681,-0.28183 -2.79251,-0.69913 -4.12708,-1.25195 -1.33456,-0.5528 -2.60241,-1.23047 -3.8035,-2.03299 -1.20108,-0.80255 -2.31231,-1.71454 -3.33377,-2.73596 -1.02145,-1.02146 -1.93347,-2.13273 -2.73599,-3.33381 -0.80255,-1.20111 -1.48022,-2.46896 -2.03302,-3.80352 -0.55279,-1.3346 -0.97009,-2.71027 -1.25192,-4.12705 -0.28183,-1.41678 -0.42273,-2.84741 -0.4227,-4.29196 -3e-5,-1.44455 0.14087,-2.87521 0.42267,-4.29199 0.28183,-1.41681 0.69916,-2.79251 1.25195,-4.12708 0.5528,-1.33456 1.23047,-2.60241 2.03299,-3.80349 0.80255,-1.20109 1.71457,-2.31235 2.73602,-3.33381 1.02146,-1.02145 2.13272,-1.93347 3.33381,-2.73602 1.20108,-0.80252 2.4689,-1.48019 3.80349,-2.03299 1.33457,-0.55279 2.71024,-0.97009 4.12708,-1.25192 C 424.62479,285.1409 426.05545,285 427.5,285 Z"
             style="fill:none;stroke:#000000;stroke-width:1;stroke-linecap:butt;stroke-linejoin:miter;stroke-miterlimit:10;stroke-dasharray:none;stroke-opacity:1"
             id="path7295"
             inkscape:connector-curvature="0" /></g><g
           id="g7297"
           transform="matrix(2.9891303,0,0,2.9891303,1219.5652,878.80432)"><text
             transform="translate(0.15625,11)"
             style="font-variant:normal;font-weight:normal;font-size:12px;font-family:Verdana;-inkscape-font-specification:Verdana;writing-mode:lr-tb;fill:#000000;fill-opacity:1;fill-rule:nonzero;stroke:none"
             id="text7301"><tspan
               x="0 7.5878906 10.880859 18.474609 24.726562 29.455078 36.603516 39.896484 43.189453 50.783203 58.376953 65.853516 73.001953 80.595703 84.814453 88.107422"
               y="0"
               sodipodi:role="line"
               id="tspan7299">Einstellungen in</tspan></text>
<text
             transform="translate(1.140625,25)"
             style="font-variant:normal;font-weight:normal;font-size:12px;font-family:Verdana;-inkscape-font-specification:Verdana;writing-mode:lr-tb;fill:#000000;fill-opacity:1;fill-rule:nonzero;stroke:none"
             id="text7305"><tspan
               x="0 9.2460938 16.453125 21.181641 28.330078 31.623047 35.841797 42.09375 49.570312 56.71875 60.011719 66.263672 73.857422 81.005859 86.126953"
               y="0"
               sodipodi:role="line"
               id="tspan7303">Datei speichern</tspan></text>
<text
             transform="translate(94.859375,25)"
             style="font-variant:normal;font-weight:normal;font-size:12px;font-family:Verdana;-inkscape-font-specification:Verdana;writing-mode:lr-tb;fill:#000000;fill-opacity:1;fill-rule:nonzero;stroke:none"
             id="text7309"><tspan
               x="0"
               y="0"
               id="tspan7307"> </tspan></text>
</g><g
           id="g7311"
           transform="matrix(2.9891303,0,0,2.9891303,1.4945651,1.4945651)"><path
             d="m 456,445 v 43 h -1 v 36.63"
             style="fill:none;stroke:#000000;stroke-width:1;stroke-linecap:butt;stroke-linejoin:miter;stroke-miterlimit:10;stroke-dasharray:none;stroke-opacity:1"
             id="path7313"
             inkscape:connector-curvature="0" /><path
             d="m 455,529.88 -3.5,-7 3.5,1.75 3.5,-1.75 z"
             style="fill:#000000;fill-opacity:1;fill-rule:nonzero;stroke:none"
             id="path7315"
             inkscape:connector-curvature="0" /><path
             d="m 455,529.88 -3.5,-7 3.5,1.75 3.5,-1.75 z"
             style="fill:none;stroke:#000000;stroke-width:1;stroke-linecap:butt;stroke-linejoin:miter;stroke-miterlimit:10;stroke-dasharray:none;stroke-opacity:1"
             id="path7317"
             inkscape:connector-curvature="0" /></g><g
           id="g7319"
           transform="matrix(2.9891303,0,0,2.9891303,1342.1195,1443.7499)"><path
             d="M 0,0 H 12 V 13 H 0 Z"
             style="fill:#ffffff;fill-opacity:1;fill-rule:nonzero;stroke:none"
             id="path7321"
             inkscape:connector-curvature="0" /><text
             transform="translate(0,10)"
             style="font-variant:normal;font-weight:normal;font-size:11px;font-family:Helvetica;-inkscape-font-specification:Helvetica;writing-mode:lr-tb;fill:#000000;fill-opacity:1;fill-rule:nonzero;stroke:none"
             id="text7325"><tspan
               x="0 5.5"
               y="0"
               sodipodi:role="line"
               id="tspan7323">Ja</tspan></text>
</g><g
           id="g7327"
           transform="matrix(2.9891303,0,0,2.9891303,1.4945651,1.4945651)"><path
             d="M 411.5,402 H 373.37"
             style="fill:none;stroke:#000000;stroke-width:1;stroke-linecap:butt;stroke-linejoin:miter;stroke-miterlimit:10;stroke-dasharray:none;stroke-opacity:1"
             id="path7329"
             inkscape:connector-curvature="0" /><path
             d="m 368.12,402 7,-3.5 -1.75,3.5 1.75,3.5 z"
             style="fill:#000000;fill-opacity:1;fill-rule:nonzero;stroke:none"
             id="path7331"
             inkscape:connector-curvature="0" /><path
             d="m 368.12,402 7,-3.5 -1.75,3.5 1.75,3.5 z"
             style="fill:none;stroke:#000000;stroke-width:1;stroke-linecap:butt;stroke-linejoin:miter;stroke-miterlimit:10;stroke-dasharray:none;stroke-opacity:1"
             id="path7333"
             inkscape:connector-curvature="0" /></g><g
           id="g7335"
           transform="matrix(2.9891303,0,0,2.9891303,1129.8912,1186.6847)"><path
             d="M 0,0 H 23 V 13 H 0 Z"
             style="fill:#ffffff;fill-opacity:1;fill-rule:nonzero;stroke:none"
             id="path7337"
             inkscape:connector-curvature="0" /><text
             transform="translate(0,10)"
             style="font-variant:normal;font-weight:normal;font-size:11px;font-family:Helvetica;-inkscape-font-specification:Helvetica;writing-mode:lr-tb;fill:#000000;fill-opacity:1;fill-rule:nonzero;stroke:none"
             id="text7341"><tspan
               x="0 7.9438477 14.061523 16.505371"
               y="0"
               sodipodi:role="line"
               id="tspan7339">Nein</tspan></text>
</g><g
           id="g7343"
           transform="matrix(2.9891303,0,0,2.9891303,1.4945651,1.4945651)"><path
             d="m 455.5,359 44,43 -44,43 -44,-43 z"
             style="fill:#ffffff;fill-opacity:1;fill-rule:nonzero;stroke:none"
             id="path7345"
             inkscape:connector-curvature="0" /><path
             d="m 455.5,359 44,43 -44,43 -44,-43 z"
             style="fill:none;stroke:#000000;stroke-width:1;stroke-linecap:butt;stroke-linejoin:miter;stroke-miterlimit:10;stroke-dasharray:none;stroke-opacity:1"
             id="path7347"
             inkscape:connector-curvature="0" /></g><g
           id="g7349"
           transform="matrix(2.9891303,0,0,2.9891303,1279.3478,1162.7717)"><text
             transform="translate(1,11)"
             style="font-variant:normal;font-weight:normal;font-size:12px;font-family:Helvetica;-inkscape-font-specification:Helvetica;writing-mode:lr-tb;fill:#000000;fill-opacity:1;fill-rule:nonzero;stroke:none"
             id="text7353"><tspan
               x="0 8.0039062 14.677734 21.351562 24.017578 30.017578 36.691406 43.365234 47.361328"
               y="0"
               sodipodi:role="line"
               id="tspan7351">Speichern</tspan></text>
<text
             transform="translate(0,25)"
             style="font-variant:normal;font-weight:normal;font-size:12px;font-family:Helvetica;-inkscape-font-specification:Helvetica;writing-mode:lr-tb;fill:#000000;fill-opacity:1;fill-rule:nonzero;stroke:none"
             id="text7357"><tspan
               x="0 6.6738281 10.669922 14.003906 20.677734 23.34375 30.017578 34.013672 40.6875 43.353516 49.353516"
               y="0"
               sodipodi:role="line"
               id="tspan7355">erfolgreich</tspan></text>
</g><g
           id="g7359"
           transform="matrix(2.9891303,0,0,2.9891303,1.4945651,1.4945651)"><path
             d="m 282,387 h 70 c 0.98489,0 1.96033,0.0961 2.92633,0.28818 0.96597,0.19217 1.90396,0.47668 2.8139,0.85357 0.90995,0.37693 1.77436,0.83896 2.5933,1.38617 0.81894,0.54721 1.5766,1.16901 2.27304,1.86545 0.69644,0.69644 1.31823,1.4541 1.86545,2.27301 0.54718,0.81894 1.00921,1.68335 1.38613,2.59329 0.37693,0.90998 0.66144,1.84797 0.85361,2.81394 0.19214,0.966 0.28821,1.94147 0.28824,2.92639 -3e-5,0.98489 -0.0961,1.9603 -0.28824,2.92627 -0.19217,0.96597 -0.47668,1.90396 -0.85361,2.8139 -0.37692,0.90995 -0.83895,1.77439 -1.38613,2.5933 -0.54722,0.81893 -1.16901,1.57663 -1.86545,2.2731 -0.69644,0.69644 -1.45413,1.31823 -2.27307,1.86541 -0.81891,0.54722 -1.68332,1.00925 -2.59327,1.38617 -0.90994,0.37693 -1.84793,0.66144 -2.8139,0.85358 -0.966,0.19217 -1.94144,0.28824 -2.92633,0.28827 h -70 c -0.98492,-3e-5 -1.96039,-0.0961 -2.92636,-0.28827 -0.966,-0.19214 -1.90396,-0.47665 -2.8139,-0.85358 -0.90995,-0.37692 -1.77439,-0.83895 -2.5933,-1.38617 -0.81894,-0.54718 -1.57663,-1.16897 -2.27307,-1.86541 -0.69644,-0.69647 -1.31827,-1.45417 -1.86545,-2.27307 -0.54721,-0.81894 -1.00924,-1.68335 -1.38617,-2.5933 -0.37692,-0.90997 -0.66143,-1.84793 -0.85357,-2.8139 C 267.09604,403.96033 266.99997,402.98489 267,402 c -3e-5,-0.98492 0.096,-1.96039 0.28818,-2.92639 0.19214,-0.96597 0.47665,-1.90396 0.85357,-2.81394 0.37693,-0.90994 0.83896,-1.77438 1.38617,-2.59332 0.54718,-0.81888 1.16901,-1.57654 1.86545,-2.27298 0.69644,-0.69644 1.4541,-1.31824 2.27304,-1.86545 0.81894,-0.54721 1.68338,-1.00924 2.59333,-1.38617 0.90994,-0.37689 1.8479,-0.6614 2.8139,-0.85357 C 280.03961,387.09607 281.01508,387 282,387 Z"
             style="fill:#ffffff;fill-opacity:1;fill-rule:nonzero;stroke:none"
             id="path7361"
             inkscape:connector-curvature="0" /><path
             d="m 282,387 h 70 c 0.98489,0 1.96033,0.0961 2.92633,0.28818 0.96597,0.19217 1.90396,0.47668 2.8139,0.85357 0.90995,0.37693 1.77436,0.83896 2.5933,1.38617 0.81894,0.54721 1.5766,1.16901 2.27304,1.86545 0.69644,0.69644 1.31823,1.4541 1.86545,2.27301 0.54718,0.81894 1.00921,1.68335 1.38613,2.59329 0.37693,0.90998 0.66144,1.84797 0.85361,2.81394 0.19214,0.966 0.28821,1.94147 0.28824,2.92639 -3e-5,0.98489 -0.0961,1.9603 -0.28824,2.92627 -0.19217,0.96597 -0.47668,1.90396 -0.85361,2.8139 -0.37692,0.90995 -0.83895,1.77439 -1.38613,2.5933 -0.54722,0.81893 -1.16901,1.57663 -1.86545,2.2731 -0.69644,0.69644 -1.45413,1.31823 -2.27307,1.86541 -0.81891,0.54722 -1.68332,1.00925 -2.59327,1.38617 -0.90994,0.37693 -1.84793,0.66144 -2.8139,0.85358 -0.966,0.19217 -1.94144,0.28824 -2.92633,0.28827 h -70 c -0.98492,-3e-5 -1.96039,-0.0961 -2.92636,-0.28827 -0.966,-0.19214 -1.90396,-0.47665 -2.8139,-0.85358 -0.90995,-0.37692 -1.77439,-0.83895 -2.5933,-1.38617 -0.81894,-0.54718 -1.57663,-1.16897 -2.27307,-1.86541 -0.69644,-0.69647 -1.31827,-1.45417 -1.86545,-2.27307 -0.54721,-0.81894 -1.00924,-1.68335 -1.38617,-2.5933 -0.37692,-0.90997 -0.66143,-1.84793 -0.85357,-2.8139 C 267.09604,403.96033 266.99997,402.98489 267,402 c -3e-5,-0.98492 0.096,-1.96039 0.28818,-2.92639 0.19214,-0.96597 0.47665,-1.90396 0.85357,-2.81394 0.37693,-0.90994 0.83896,-1.77438 1.38617,-2.59332 0.54718,-0.81888 1.16901,-1.57654 1.86545,-2.27298 0.69644,-0.69644 1.4541,-1.31824 2.27304,-1.86545 0.81894,-0.54721 1.68338,-1.00924 2.59333,-1.38617 0.90994,-0.37689 1.8479,-0.6614 2.8139,-0.85357 C 280.03961,387.09607 281.01508,387 282,387 Z"
             style="fill:none;stroke:#000000;stroke-width:1;stroke-linecap:butt;stroke-linejoin:miter;stroke-miterlimit:10;stroke-dasharray:none;stroke-opacity:1"
             id="path7363"
             inkscape:connector-curvature="0" /></g><g
           id="g7365"
           transform="matrix(2.9891303,0,0,2.9891303,813.04346,1162.7717)"><text
             transform="translate(0.265625,11)"
             style="font-variant:normal;font-weight:normal;font-size:12px;font-family:Verdana;-inkscape-font-specification:Verdana;writing-mode:lr-tb;fill:#000000;fill-opacity:1;fill-rule:nonzero;stroke:none"
             id="text7369"><tspan
               x="0 6.8964844 14.044922 21.638672 24.931641 32.080078 37.201172 48.873047 56.021484 59.314453 66.791016 74.384766 81.978516"
               y="0"
               sodipodi:role="line"
               id="tspan7367">Fehlermeldung</tspan></text>
<text
             transform="translate(89.71875,11)"
             style="font-variant:normal;font-weight:normal;font-size:12px;font-family:Verdana;-inkscape-font-specification:Verdana;writing-mode:lr-tb;fill:#000000;fill-opacity:1;fill-rule:nonzero;stroke:none"
             id="text7373"><tspan
               x="0"
               y="0"
               id="tspan7371"> </tspan></text>
<text
             transform="translate(18.109375,25)"
             style="font-variant:normal;font-weight:normal;font-size:12px;font-family:Verdana;-inkscape-font-specification:Verdana;writing-mode:lr-tb;fill:#000000;fill-opacity:1;fill-rule:nonzero;stroke:none"
             id="text7377"><tspan
               x="0 7.2070312 14.800781 21.105469 28.253906 31.546875 39.023438 46.171875"
               y="0"
               sodipodi:role="line"
               id="tspan7375">anzeigen</tspan></text>
<text
             transform="translate(71.875,25)"
             style="font-variant:normal;font-weight:normal;font-size:12px;font-family:Verdana;-inkscape-font-specification:Verdana;writing-mode:lr-tb;fill:#000000;fill-opacity:1;fill-rule:nonzero;stroke:none"
             id="text7381"><tspan
               x="0"
               y="0"
               id="tspan7379"> </tspan></text>
</g><g
           id="g7383"
           transform="matrix(2.9891303,0,0,2.9891303,1.4945651,1.4945651)"><path
             d="M 267,402 H 219.87"
             style="fill:none;stroke:#000000;stroke-width:1;stroke-linecap:butt;stroke-linejoin:miter;stroke-miterlimit:10;stroke-dasharray:none;stroke-opacity:1"
             id="path7385"
             inkscape:connector-curvature="0" /><path
             d="m 214.62,402 7,-3.5 -1.75,3.5 1.75,3.5 z"
             style="fill:#000000;fill-opacity:1;fill-rule:nonzero;stroke:none"
             id="path7387"
             inkscape:connector-curvature="0" /><path
             d="m 214.62,402 7,-3.5 -1.75,3.5 1.75,3.5 z"
             style="fill:none;stroke:#000000;stroke-width:1;stroke-linecap:butt;stroke-linejoin:miter;stroke-miterlimit:10;stroke-dasharray:none;stroke-opacity:1"
             id="path7389"
             inkscape:connector-curvature="0" /></g></g></g></g></svg>